<?xml version="1.0" encoding="UTF-8"?><svg id="Camada_1" xmlns="http://www.w3.org/2000/svg" viewBox="0 0 1000 1000"><path d="m658.66,672.44c-.1-1.11-.15-1.66-.21-2.36-2.42,2.01-4.7,3.91-7.08,5.88-.69-.52-1.21-.91-1.66-1.25-2.84,2.42-5.59,4.76-8.95,7.63.35-1.53.5-2.18.78-3.37-2.4,1.8-4.37,3.44-6.51,4.83-1.11.72-2.01,2.54-3.88,1.27-.14-.09-.82.47-1.15.82-2.34,2.47-4.91,4.56-8.35,5.34-.56.13-.99.75-1.51,1.1-2.48,1.67-5.09,3.17-7.41,5.04-2.64,2.12-4.99,4.62-7.55,6.85-.99.86-1.62,2.66-3.65,1.64-.33-.16-1.36.95-1.99,1.55-1.62,1.55-3.2,3.15-5.01,4.93-.17-.84-.27-1.32-.48-2.3-9.55,11.05-18.82,21.77-25.27,34.74.7-11.17,2.38-22.28,2.09-34.13-3.11,8.27-6,15.96-8.88,23.65-2.37-12.4-5.11-24.46-8.91-36.26-.25.02-.51.05-.76.07-.24,2.4-.47,4.8-.71,7.23-.47-.12-.84-.11-.88-.23-1.65-4.39-5.03-7.49-8.29-10.56-2.14-2.02-4.88-3.39-7.34-5.06-1.25-.85-2.48-1.72-3.72-2.58-.41-.29-.82-.82-1.24-.82-4.82-.04-8.47-3.37-12.89-4.54-4.38-1.16-8.64-2.75-12.99-4-3.74-1.07-7.53-1.93-11.54-2.94,0-.58-.11-1.2.02-1.76,6.04-27.76,2.42-54.58-7.78-80.79-9.59-24.66-22.58-47.25-40.58-66.77-14.87-16.11-32.05-28.71-53.66-34.35-.48-.13-.94-.34-1.77-.65.27-4.96.91-9.87,2.83-14.6,1.92-4.75,5.45-8.26,9.44-12.05-4.44-.96-7.95-.22-11.12,2.13-3.12,2.31-5.28,5.36-6.71,8.95-2.16,5.39-3.74,15.82-3.22,21.73.84.26,1.75.63,2.7.84,12.69,2.72,23.74,8.89,34.18,16.32,23.96,17.05,40.39,40.11,52.95,66.28,7.52,15.68,12.68,32.1,15.2,49.28,2.46,16.77,1.93,33.42-3.9,49.6-3.77,10.45-10.15,18.77-19.84,24.38-11.63,6.74-24.27,10.4-37.56,11.8-5.88.62-11.81.7-17.72.95-2.01.09-3.86.36-5.81,1.16-4.56,1.85-9.44,1.24-14.19.68-8.85-1.05-17.22-3.83-25.05-8.02-13.24-7.08-25.95-15.03-37.35-24.86-8.18-7.05-14.72-15.52-19.88-25.02-.3-.55-.6-1.11-.88-1.67-2.17-4.38-3.23-5.17-6.58-8.47-2.74-2.71-4.93-6.02-7.14-9.21-1.36-1.95-2.28-4.2-3.47-6.28-.42-.74-1.01-1.88-1.61-1.94-2.41-.25-2.92-2.21-3.8-3.78-8.01-14.27-14.43-29.17-16.46-45.55-1.69-13.64-1.14-27.16,4.06-40.17,4.72-11.8,12.15-21.44,22.81-28.4,2.22-1.45,2.87-2.79,2.51-5.48-3.2-24.04-4.39-48.19-2.44-72.39,2.42-29.98,11.46-57.9,26.8-83.83,20.94-35.39,49.69-62.24,87.07-79.51,16.77-7.75,34.49-12.62,52.78-15.36,12.99-1.94,26.02-3.11,39.16-2.18,2.11.15,4.21.46,6.3,1.08-4.78.54-9.57.97-14.34,1.64-30.38,4.23-59.04,13.63-85.84,28.62-21.38,11.96-38.74,28.36-53.09,48.06-20.96,28.79-32.67,61.11-36.52,96.4-1.57,14.44-1.49,28.93-1.28,43.42.02,1.23.2,2.46.34,4.06,12.25-1.29,24.25-1.88,36.66.66,0-1.87-.01-3.22,0-4.57.19-15.87.06-31.75.63-47.61,1.29-35.72,13.18-67.72,34.81-96.11,18.66-24.5,42.03-42.86,70.73-54.31,19.69-7.86,40.12-10.12,61.16-8.89,18.84,1.11,36.79,5.55,53.97,13.21,3.56,1.59,7.08,3.3,10.49,5.18,24.23,13.31,44.69,30.91,60.31,53.84,8.85,12.99,14.48,27.34,16.82,42.91.36,2.43,1.18,3.68,3.72,4.33,5.08,1.29,8.98,4.57,11.93,8.8,11.19,16.01,15.31,33.47,10.45,52.69-.12.48-.19.97-.3,1.53,3.34,1.82,6.72,3.44,9.86,5.43,6.48,4.12,11.79,9.41,15.35,16.32,4.84,9.41,5.28,19.02,1.42,28.85-.68,1.74-1.28,3.51-1.85,5.08.3.49.38.79.57.89,6.65,3.59,11.39,9.05,15.15,15.46,6.9,11.76,11.57,24.27,12.76,38.53-3.99-3.68-7.68-7.12-12.8-9.16,1.64,4.2,3.28,7.97,4.56,11.86.69,2.08.68,4.39,1.15,6.56.26,1.2.76,2.38,1.31,3.49,2.69,5.45,3.75,11.17,2.8,17.24-.52-5.15-1-10.29-3.55-14.94-2.54-4.63-5.77-8.61-10.41-11.37,2.39,8.38,5.51,16.45,6.38,25.22-2.27-3.18-3.58-7.22-7.96-9.07-.12.94-.27,1.6-.27,2.26.03,6.34-1.02,12.5-2.47,18.66-1.36,5.75-2.01,11.66-3.27,17.43-1.41,6.47-3.14,12.86-5.15,19.25-.28-6.39-.52-12.66-3.43-19.27-4.33,21.16-17.46,35.07-34.02,46.52-.37-.29-.84-.65-1.53-1.19-3.09,2.55-6.22,5.13-9.6,7.91Zm42.51-162.7c-1.23.95-2.09,1.63-2.97,2.29-3.52,2.66-6.89,5.53-10.58,7.91-10.92,7.05-22.42,13.06-34.38,18.12-21.77,9.2-44.31,15.86-67.54,20.21-18.48,3.46-37.05,5.87-55.91,5.86-9.35,0-18.33-1.7-26.79-5.58-3.61-1.66-6.98-3.99-10.15-6.42-2.67-2.04-4.16-5.01-4.16-8.55,0-5.96,4.24-8.8,9.62-6.35,1.35.62,2.62,1.52,3.75,2.49,1.43,1.23,2.68,2.65,4,4.01,3.82,3.93,8.34,6.27,13.92,6.77,17.66,1.59,35.23.91,52.72-1.93,25.32-4.13,49.9-10.94,73.76-20.36.89-.35,1.7-.9,2.65-1.41-3.68-10.81-8.95-20.53-15.28-29.64-6.3-9.07-13.07-17.8-19.76-26.85,3.22.35,5.84,1.45,8.15,3.62,6.57,6.16,12.09,13.16,17.05,20.63,5.38,8.1,9.93,16.65,13.69,25.62.65,1.55,1.62,2.97,2.52,4.57,9.64-4.92,18.74-9.77,27.23-15.63,3.5-2.42,6.75-5.29,9.79-8.27,3.56-3.49,6.09-7.75,6.93-12.76,1.35-8.06-2.08-14.24-8.06-19.22-5.09-4.23-10.91-7.29-17.14-9.4-5.95-2.02-12.01-3.77-18.09-5.33-2.67-.68-4.05-1.91-4.58-4.61-.64-3.2-1.73-6.31-2.51-9.49-2.56-10.5-5.88-20.84-5.57-31.88.1-3.33-.92-6.71-1.62-10.03-.17-.81-1.08-1.46-1.87-2.47,2.45-13.13-1.38-24.88-11.04-34.7-3.17-3.22-6.69-6.12-10.25-8.91-10.66-8.35-22.24-9.04-34.52-3.97-10.8,4.46-18.06,12.53-23.53,22.51-.65,1.19-1.31,2.39-2.14,3.89-1.6-.61-2.98-1.11-4.35-1.67-12.54-5.06-25.52-6.97-38.88-4.75-22.16,3.68-39.18,14.73-48.76,35.63-11.61,25.33-5.13,55.26,17.46,71.85,8.4,6.17,17.54,9.8,28.14,9.01,1.1-.08,2.21-.01,3.62-.01-3.35,6.85-6.59,13.48-9.96,20.37-.99.17-2.24.29-3.45.6-3.64.94-7.36,1.69-10.86,3.01-7.75,2.93-11.91,8.94-13.49,16.89-1.16,5.81-.6,11.56.99,17.2,3.13,11.09,7.96,21.47,13.6,31.48,10.57,18.75,24.68,34.29,42.47,46.42,18.01,12.27,37.99,19.52,59.46,22.72,9.87,1.47,19.78,2.21,29.71.37,18.84-3.51,36.25-10.6,51.82-21.76,25.47-18.24,38.16-43.24,38.1-74.55-.02-11.53-2.78-22.47-9.08-32.31-1.13-1.76-2.51-3.37-3.93-5.26Zm-345.13,188.27c5.06,3.09,10.09,4.95,15.34,6.08,10.34,2.24,20.54,2.04,30.21-2.86,8.74-4.42,15.83-10.78,20.97-19.11,9.34-15.14,11.39-31.56,7.61-48.73-2.89-13.13-8.17-25.38-14.91-36.99-8.97-15.46-20.2-28.93-35.47-38.55-18.05-11.37-37.58-16.22-58.83-12.06-23.35,4.57-38.37,23.43-37.99,47.19.15,9.4,2.87,18.1,6.54,26.58,1.65,3.81,3.41,7.58,6.33,10.67.75.79,1.19,1.91,1.65,2.94,2.51,5.5,4.95,11.02,7.48,16.51,4.68,10.15,10.73,19.38,18.67,27.3,9.02,9,19.27,15.69,32.23,17.55,16.55,2.37,30.3-6.33,34.57-22.28,2.15-8.04,2.12-16.21.42-24.34-3.27-15.56-10.89-28.87-21.32-40.69-8.2-9.3-17.75-16.79-29.53-21.04-6.93-2.49-14.06-4.23-21.48-2.74-13.18,2.64-20.29,9.26-22.21,22.24-.29,1.94-.49,3.89-.73,5.84-.74-4.82-.51-9.56.76-14.23,2.81-10.36,9.45-16.77,20.01-18.73,5.35-.99,10.79-.76,16.17.19,11.19,1.97,20.93,7.07,29.78,13.99,15.59,12.18,25.71,28.15,31.86,46.76,3.56,10.77,4.23,21.75.99,32.74-4.08,13.85-13.1,22.37-27.52,24.69-3.64.59-7.36.7-11.59,1.08Zm11.61-193.3c0-1.53,0-2.88,0-4.23.01-11.21.05-22.42.04-33.64-.02-15.88.13-31.75,2.32-47.52,3.97-28.6,13.93-54.82,31.47-77.92,13.38-17.64,29.59-31.88,50.03-40.96,12.55-5.57,25.68-8.86,39.32-10.12,13.5-1.24,26.9-.36,40.22,2.18,23.17,4.42,44.18,13.64,62.76,28.2,4.95,3.88,9.57,8.18,14.19,12.45,2.35,2.17,4.73,3.99,7.91,4.84,4.16,1.11,7.98,3.09,11.38,5.78,1.24.98,2.39,2.08,3.58,3.13-.1-1.02-.57-1.69-1.06-2.34-14.63-19.22-32.45-34.8-53.87-45.99-27.52-14.38-56.91-19.86-87.78-16.84-20.34,1.99-39.53,7.87-56.59,19.37-33.67,22.69-54.31,54.68-65.41,93.24-4.7,16.33-6.4,33.12-6.46,50.06-.08,22.93-.03,45.86-.02,68.78,0,.98.17,1.96.28,3.11,3.84.65,7.58,1.12,11.24,1.93,17.75,3.92,32.73,12.87,45.32,25.77,22.78,23.34,36.78,51.44,43.92,83.06,2.34,10.38,2.79,20.97,1,31.55-1.33,7.87-4.6,14.63-11.51,19.16-.53.34-1.14.56-1.83.89,3.14,3.04,6.12,3.9,9.26,2.49,2.47-1.11,4.9-2.6,6.9-4.42,4.83-4.41,7.1-10.32,8.59-16.51,3.17-13.13,2.63-26.35-.46-39.33-7.36-30.96-21.47-58.53-42.94-82.14-10.7-11.76-23.1-21.34-37.81-27.72-7.54-3.27-15.34-5.56-23.96-6.34Zm288.21-88.24c3.86-.42,5.41,1.79,6.49,4.51.6,1.52,1.17,3.07,1.52,4.66,1.03,4.72,1.08,9.48.5,14.27-.23,1.93-.22,3.88-.31,5.83,3.03.53,5.57.98,8.3,1.46,1.33-10.28.34-19.96-2.04-29.55-1.79-7.25-5.48-13.49-10.24-19.13-1.25-1.48-2.88-2.62-4.34-3.92-.21.15-.43.29-.64.44,1.69,6.92,1.49,13.91.76,21.44Z"/><path d="m562.22,440.55c9.2-7.74,20.81-10.52,32.02-14.7-2.17-2.94-3.88-5.82-4.11-9.35-.88-13.5,13.19-23.12,25.77-17.59,9.96,4.38,14.53,14.75,11.04,25.06-.28.82-.54,1.65-.84,2.53,1.29,1.75,2.55,3.44,4.13,5.58-1.48-.18-2.4-.3-3.33-.39-5.43-.55-10.81-.54-16.1,1.06-8.67,2.62-17.4,5.06-26,7.9-3.91,1.29-7.61,3.3-11.34,5.1-8.71,4.21-13.95,11.32-16.76,20.39-.63,2.04-1.2,4.09-1.87,6.41-5.08.21-10.17.42-15.66.65.81-3.72,1.53-7,2.31-10.58-.97,0-1.7-.01-2.43,0-11.24.19-20.24-9.21-19.07-20.51,1.64-15.87,14.31-21.94,24.19-20.38,5.83.92,10.37,3.95,13.4,8.9,1.81,2.97,2.99,6.32,4.65,9.92Zm-17.94,15.46c-2.54.31-4.89,1.03-7.14.78-9.35-1.01-14.57-12.32-9.83-20.97,3.13-5.71,9.36-9.12,15.31-8.38,6.69.83,11.64,5.31,13.4,12.08.2.75.57,1.46,1.18,2.98.63-4.32-.35-7.37-2.13-10.19-5.64-8.92-17.3-10.37-25.98-3.26-9.55,7.83-8.42,22.63,2.22,28.85,2.59,1.52,5.44,1.99,8.37,1.59,2.04-.28,3.64-1.34,4.57-3.47Zm78.15-32.79c.79-1.03,1.14-1.36,1.32-1.75,1.74-3.86,1.04-7.65-.51-11.35-2.6-6.2-8.77-9.96-15.67-9.63-6.6.31-12.15,4.51-14.15,10.7-1.4,4.36-.22,9.28,2.84,11.79,1.16.95,2.37,1.68,4.43.26-4.36-1.7-5.34-5.01-5.11-8.7.24-3.83,2.07-6.97,5.33-9.12,4.83-3.2,11.13-2.89,16.3.74,4.83,3.39,6.9,8.79,5.58,14.5-.13.57-.16,1.17-.35,2.58Z"/><path d="m494.74,436.65c-4.52-2.62-6.54-6.27-7.53-10.55-2.03-8.78.53-16.46,6.09-23.22,7.86-9.56,18.44-14.07,30.39-15.86,7.98-1.2,15.82-.77,23.36,2.34,4.62,1.91,8.64,4.65,11.48,8.88.47.71.8,1.51,1.5,2.84-1.57-.4-2.59-.63-3.59-.92-11.68-3.37-23.4-4.68-35.34-1.21-7.95,2.32-14.89,6.25-20.13,12.69-5.75,7.07-8.19,15.2-6.23,25.01Z"/><path d="m629.33,384.94c-8.39-7.64-17.82-9.86-28.39-8.75-10.87,1.14-17.77,8.1-24.04,16.67-2.5-3.55-2.53-6.94-1.5-10.35,1.85-6.12,6-10.49,11.5-13.43,9.54-5.09,19.51-5.61,29.52-1.54,5.96,2.43,10.34,6.68,12.21,13.06.41,1.39.47,2.89.69,4.34Z"/><path d="m590.04,474.49c-4.56-.11-7.69-.9-10.4-2.93-4.2-3.15-5.26-8.12-2.79-12.73,4.13-7.69,14.27-9.83,21.01-4.43,6.68,5.35,5.85,14.43-1.8,18.25-2.19,1.09-4.74,1.47-6.01,1.84Z"/><path d="m621.69,440.61c5.19-.07,8.98,2.24,11.8,6.06,3.46,4.68,1.92,11.19-3.2,14.43-4.88,3.09-12.16,2.71-16.69-.88-4.95-3.92-5.57-10.63-1.33-15.32,2.56-2.84,5.74-4.43,9.42-4.29Z"/><path d="m355.42,685.82c-10.11-.15-18.58-3.84-25.78-10.51-7.12-6.6-12.23-14.68-16.63-23.23-5.12-9.93-8.65-20.4-9.82-31.55-.35-3.35-.38-6.82.1-10.14,1.64-11.36,11.26-19.03,24.15-17.41,11.47,1.44,21.44,6.26,29.89,14.11,12.63,11.73,21.09,25.88,24.42,42.91,1.25,6.41.99,12.75-1.09,19.01-3.36,10.13-10.7,15.14-20.92,16.53-1.49.2-3.01.2-4.33.28Z"/><path d="m499.99,133.83c-202.23,0-366.17,163.93-366.17,366.17s163.94,366.17,366.17,366.17,366.18-163.93,366.18-366.17-163.94-366.17-366.18-366.17Zm0,698.25c-183.4,0-332.08-148.68-332.08-332.08S316.59,167.92,499.99,167.92s332.09,148.68,332.09,332.08-148.68,332.08-332.09,332.08Z"/></svg>