<?xml version="1.0" encoding="utf-8"?>
<!-- Generator: Adobe Illustrator 27.4.1, SVG Export Plug-In . SVG Version: 6.00 Build 0)  -->
<svg version="1.1" id="Layer_2" xmlns="http://www.w3.org/2000/svg" xmlns:xlink="http://www.w3.org/1999/xlink" x="0px" y="0px"
	 viewBox="0 0 2464.9 2464.9" style="enable-background:new 0 0 2464.9 2464.9;" xml:space="preserve">
<style type="text/css">
	.st0{fill:#CBE5F4;}
	.st1{opacity:5.000000e-02;enable-background:new    ;}
	.st2{opacity:0.25;fill:#FFFFFF;enable-background:new    ;}
	.st3{fill:#002342;}
	.st4{fill:#86C7F7;}
</style>
<g id="Camada_1_00000051346220602954341790000015562722552995191483_">
	<path class="st0" d="M2428.9,1232.5c0,624.7-478.7,1137.5-1089.3,1191.7c-35.3,3.1-71.1,4.7-107.2,4.7c-37.3,0-74.3-1.7-110.8-5.1
		C512.8,2367.9,36,1855.9,36,1232.5c0-641,504.1-1164.2,1137.4-1195c19.6-1,39.2-1.4,59-1.4c18.7,0,37.4,0.4,55.9,1.3
		C1923.2,66.5,2428.9,590.4,2428.9,1232.5z"/>
	<g>
		<path class="st1" d="M2428.9,1234.2c0,624.6-478.7,1137.5-1089.3,1191.7c500.5-161.6,862.6-631.4,862.6-1185.7
			c0-573.1-387-1055.8-913.9-1201.1C1923.2,68.2,2428.9,592.2,2428.9,1234.2z"/>
		<path class="st2" d="M1121.7,2425.6C512.8,2369.7,36,1857.6,36,1234.2C36,593.2,540.1,70,1173.5,39.2
			c-526.6,145.5-913.3,628.1-913.3,1201C260.1,1794.1,621.7,2263.6,1121.7,2425.6z"/>
	</g>
	<g id="_x30_fEjAc.tif">
		<g>
			<path class="st3" d="M1278.8,1355.5c12.1,7.3,21.9,2.1,32.7-4.6c32.7-20.1,66.8-28.3,102.7-7c23.7,14.2,31.3,36.4,31.3,62.5
				c3.5,59.5-30.7,100.6-71.6,135c-22.6,19-52.7,30.8-81.1,41c-70.2,25.1-94.7,62.4-83,134.9c8.5,52.2,13,105.3-1.2,156.2
				c-33.8,121.2-108.5,208.3-228,253c-48.6,18.2-99,24-150.5,14.9c-20.5-3.7-41.1-7-61.7-10.4c-56.2-19.3-108.4-47-156.6-81.5
				c-84.2-60.3-156-132-199.1-228c-19.3-42.9-31.2-87.8-33.9-135.6c-4-68.8,10.7-132.9,41.1-193.8c29-58.2,69.3-107.5,128.4-136
				c33.5-16.2,71-25.7,107.6-33.5c43-9,87.6-11,130.8-19.5c33.6-6.6,50.6-32.4,55.4-65c8.3-57.2,25.4-110.7,59-158.3
				c36.6-51.7,109.3-68.2,156.8-37.3c21.7,14.1,19.9,37.5,24.6,58.5c-2.9,11.4-5.3,23-8.8,34.2c-10.4,33.1-6.1,46.3,22,65
				c39.2,7.7,58.6-20.2,79.7-44.7c25.9-30.1,51.3-60.8,77.1-91.2c42.6-50.1,85.3-100.2,128.3-150c33.9-39.4,68.6-78.2,102.5-117.6
				c26.7-31.1,53.7-62,79-94.3c14.2-18,17.3-38.4,4-59.7c-9.7-15.6-1.5-43.2,12.6-55.4c15.5-13.4,28.9-29.3,43.8-43.3
				c9.1-8.5,19.9-15.1,29.3-23.2c7.1-6,16.3-11.9,19.3-19.8c14.6-37.8,29.7-46.5,66.2-35.1c20.8-22,36.5-24.1,64.7-11
				c39.2,18.2,70.9,45,93.2,81.9c5.6,9.2,6.4,21.3,9.4,32.1c-4.5,8.3-8.9,16.6-13.8,25.6c14.4,24.3,4,46.9-16.9,58.2
				c-10.5,5.7-23.8,14.1-26.9,24c-7.7,24.4-22.8,38.3-45.1,47.9c-5.2,2.3-10.1,9.6-11.8,15.5c-8.4,29.5-36.9,45.8-66.1,36.8
				c-41-12.7-53.5-8.8-80.6,24.9c-15.1,18.7-30.1,37.6-45.2,56.3c-45.7,56.8-91.5,113.4-136.9,170.5
				c-65.3,82-130.1,164.3-195.4,246.3C1243.7,1302.7,1249.4,1341,1278.8,1355.5z M1553.2,849.1c0.7-1.5,1.5-3,2.2-4.5
				c7.2-8.6,14.4-17.4,21.6-26c18.3-22,36.7-44,55-66c34.7-31.9,75.3-22.5,115.6-13.2c5.9-27.3,18.2-46.2,44-54.1
				c5.1-1.6,11.4-6.7,12.7-11.4c7.3-26.7,25.9-43.5,49.7-57.6c-14.9-22.1-10.2-40.9,12.2-59.1c-17.5-16.5-33.9-31.9-50.4-47.3
				c-6.6-4.6-13.1-9.7-20-13.6c-12-6.8-23.5-13.3-33.1,5.1c-2.7,5.1-13.3,7.6-20.6,8.3c-9.2,0.8-18.6-1.6-27.7-2.5
				c-11.6,24.1-27,43.8-52.3,54.3c-2.7,1.1-6.3,2.8-7,5c-6.8,24.1-26.7,35.6-45.3,48.5c-3.2,2.2-5.4,6.1-7.2,8
				c16.8,32.8,17.9,65.4-2.9,92.8c-39.7,52.2-82.9,101.7-125.2,151.9c-26.1,31-53.4,60.9-79.9,91.6c-33.8,39.3-67.2,79-100.8,118.6
				c-26.9,31.7-54,63.2-80.8,95.1c-28.6,34.2-56.9,68.6-106,72.7c-2-1.3-4-3.2-6.2-3.7c-57.6-12.3-86.4-54.9-65.6-119.8
				c3.2-10,3.1-21,4.5-31.6c1.7-16.6-10.1-19.9-22.5-22c-40.3-6.6-68.8,12.7-90.4,43.9c-25.6,37.2-37.6,80-44.1,124
				c-7.2,47.7-29,85-74.7,101.8c-26.8,9.8-56.6,12-85.3,16.5c-28.9,4.5-58.4,5.7-86.9,11.7c-80.1,16.7-137,63.6-176,135.6
				c-34.6,64-46,132.1-39.5,202.9c3.7,39.6,14.5,78.5,35.8,113.3c2.8,5.9,5.1,12,8.5,17.6c30.9,52.6,69,98.6,116.1,138.1
				c74.6,62.7,154.1,113.6,253.4,127.5c39.6,5.5,77.9,3.6,115.8-7.4c62.2-18.2,113.6-52.5,155-103.2
				c65.2-79.9,81.6-170.2,65.8-269.8c-4-24.8-3.5-51.5,1-76.1c7.8-42.8,39.2-68.4,76.3-87.3c34.5-17.6,71.2-31.6,103.3-52.8
				c36.4-24,58.5-59.1,52-106.1c2.5-15.1-6.5-23.4-19.2-24.8c-18.3-2-36.2-1.3-53.2,10.8c-11.4,8.1-27.1,10.1-40.9,14.9
				c-34.4-1-59.6-18.9-71.3-49.3c-12.9-33.2-9.5-67.6,13.6-97.1c25.7-32.8,52.5-64.7,78.4-97.3c55.1-69.5,110.1-139.1,164.9-209
				c12.1-15.4,23.3-31.7,34.8-47.6l-0.1,0.1c5-6.2,9.9-12.2,14.9-18.4l-0.1,0.1c1.7-1.6,3.5-3.2,5.1-4.8c0.9-0.3,1.4-0.8,1.4-1.8
				c1.1-0.2,1.7-0.8,1.8-1.9c0.7-0.1,1.2-0.5,1.5-1.1c1.7-2.9,3.3-5.9,5-8.7l-0.1,0.1c1.2-1.3,2.4-2.6,3.7-3.9
				c1.1-1.2,2.3-2.5,3.4-3.7c1.8-1.8,3.6-3.7,5.4-5.5L1553.2,849.1z"/>
			<path class="st4" d="M1278.8,1355.5c-29.4-14.5-35-52.8-12.9-80.7c65.3-81.9,130.1-164.3,195.4-246.3
				c45.4-57,91.4-113.7,136.9-170.5c15.1-18.7,30.1-37.6,45.2-56.3c27.2-33.8,39.7-37.6,80.6-24.9c29.2,9.1,57.7-7.2,66.1-36.8
				c1.7-6,6.5-13.2,11.8-15.5c22.2-9.6,37.4-23.5,45.1-47.9c3.1-9.9,16.5-18.3,26.9-24c20.9-11.3,31.3-34,16.9-58.2
				c4.8-8.9,9.3-17.2,13.8-25.6c4.4,5.6,8.7,11.4,13.3,16.9c13,15.4,11.5,29.5-4.3,41.8c-10.9,8.5-4,16.2,1.1,23.4
				c10.6,15.1,9.8,20.5-6.3,29.8c-18.7,10.8-35.2,22-40.9,45.8c-2.1,9-14.9,16.6-24.4,22.5c-13.5,8.4-26.9,14.2-29,33.8
				c-1.7,16.5-22.1,25.6-37.8,20.6c-48.8-15.5-72.4-8.6-103.9,30.9c-126.2,158.5-252.3,317.2-378.8,475.5
				C1282.8,1323.7,1277.9,1338.3,1278.8,1355.5z"/>
			<path class="st4" d="M768.3,2131c20.6,3.5,41.1,6.7,61.7,10.4c51.6,9.2,101.9,3.4,150.5-14.9c119.6-44.8,194.2-131.9,228-253
				c14.2-50.8,9.7-103.9,1.2-156.2c-11.7-72.5,12.8-109.8,83-134.9c28.4-10.2,58.5-22,81.1-41c40.8-34.4,75.1-75.5,71.6-135
				c27.7,10.2,28.1,43.1,23.6,67.9c-9.4,52.1-43.2,86.2-87.5,110.6c-24.4,13.4-50.5,24-76,35.1c-57,24.9-79.5,71.5-71.4,133
				c13.4,102.2,9.7,202.3-61.9,286.4c-48.8,57.4-104.2,104.6-181.1,122.1c-74.1,16.9-144.3,8.3-213-21.4
				C774.3,2138.5,771.6,2134.1,768.3,2131z"/>
			<path class="st4" d="M1095.6,1200.2c-28-18.6-32.4-31.8-22-65c3.5-11.2,5.9-22.8,8.8-34.2c14.7,2.3,20.8,12.9,20.2,25.8
				c-0.7,17.3-4.3,34.4-6.2,51.6C1095.6,1185.6,1095.9,1192.9,1095.6,1200.2z"/>
			<path class="st4" d="M1403.6,1398.9c6.4,47-15.5,82.1-52,106.1c-32.1,21.1-68.8,35.1-103.3,52.8c-37,18.9-68.4,44.4-76.3,87.3
				c-4.5,24.7-5,51.4-1,76.1c15.8,99.5-0.6,189.9-65.8,269.8c-41.4,50.7-92.7,85-155,103.2c-37.9,11-76.2,13-115.8,7.4
				c-99.3-13.9-178.8-64.7-253.4-127.5c-47.1-39.5-85.2-85.6-116.1-138.1c-3.3-5.6-5.7-11.8-8.5-17.6c-2.4-11.1-6-22.2-6.9-33.5
				c-2.1-27.5-3.9-55.1-4.1-82.7c-0.3-22.7-2.8-46.8,3.7-67.8c10.8-35.4,25.1-70.5,42.9-102.9c42.1-76.3,106.2-125.2,193.1-140.3
				c44.1-7.7,88.8-12.1,133.3-17.6c44.3-5.4,77.2-35.4,86.2-77.7c6.2-29.6,12.7-59.4,22-88.1c18.4-57.3,49.2-103.8,113.5-117.1
				c-1.4,10.6-1.3,21.6-4.5,31.6c-20.8,64.9,8,107.4,65.6,119.8c2.2,0.5,4.1,2.4,6.2,3.7c8.1,5.7,15.5,12.8,24.4,16.7
				c22.2,10.1,58.8,1.8,75.7-17.1c24.4-27.3,48.1-55.3,72-83.2c63.1-73.7,126.1-147.6,189.6-221c12.9-14.9,27.8-27.8,41.8-41.7
				c-11.6,15.9-22.7,32.2-34.8,47.6c-54.8,69.8-109.7,139.4-164.9,209c-25.9,32.6-52.7,64.5-78.4,97.3c-23.1,29.5-26.5,64-13.6,97.1
				c11.8,30.3,36.9,48.2,71.3,49.3c17.2,27.1,44.9,32.3,75.5,15.2C1377.8,1408.3,1391,1404.1,1403.6,1398.9z M923.6,1696.5l-0.3-0.2
				c4.2,4,7.9,9,12.9,11.8c44.9,25.3,111.8,16.5,151.7-19.7c26.8-24.3,42.9-53.1,45.3-90.4c2-32.1,2.1-62.6-19.4-89
				c-2.3-5.2-5.1-10.4-6.9-15.9c-23.4-74.7-86.5-117-159.3-115.4c-47.7,1-89.2,19.8-119.5,59.2c-41.1,53.5-48.8,120.3-13.7,179.1
				c23,38.5,57,62.5,98.2,77.8C916.2,1694.7,919.9,1695.6,923.6,1696.5z M872.1,1895.3c-6.3-8.1-10.7-16-17.1-21.1
				c-46.2-37.3-92.9-74.2-139.4-111.1c-30.5-24.4-60.7-49.4-92-72.5c-5-3.7-15.7,0.5-23.8,0.9c0.8,8.1-1.3,18.4,2.9,23.6
				c9,11.1,21,19.9,32.4,29c48.3,38.9,96.7,77.5,144.9,116.3c19.7,15.8,38.9,32.4,59.1,47.4c5.1,3.8,14,5.7,19.9,4.1
				C863.6,1910.6,866.6,1902.6,872.1,1895.3z"/>
			<path class="st4" d="M1631.9,752.7c2.5-10.6,7.4-21.4,6.8-31.8c-0.8-14.1-4.1-28.8-9.9-41.5c-4.7-10.2-5.1-17.2,3.1-24.1
				c7.9-6.7,17-12.1,24.1-19.6c8.9-9.5,15.7-20.9,24.5-30.4c7.3-7.9,15.3-16.3,24.6-20.9c17.7-8.6,28.6-21.5,33.1-40.3
				c3.5-14.5,17.7-23.5,28.2-15.7c17.7,13.1,28.6,7.9,38.2-9.2c2.2-4,7.3-6.2,11-9.3c16.5,15.4,32.9,31,50.4,47.3
				c-22.4,18.2-27.1,37-12.2,59.1c-23.8,14.2-42.5,30.8-49.7,57.6c-1.3,4.7-7.6,9.8-12.7,11.4c-25.9,7.9-38.1,26.8-44,54.1
				C1707.2,730.2,1666.7,720.7,1631.9,752.7z"/>
			<path class="st4" d="M1510.8,899.5c5-6.2,9.9-12.2,14.9-18.4C1520.6,887.2,1515.7,893.3,1510.8,899.5z"/>
			<path class="st4" d="M1535.4,871.5c1.7-2.9,3.3-5.9,5-8.7C1538.7,865.7,1537,868.6,1535.4,871.5z"/>
			<path class="st4" d="M1525.5,881.2c1.7-1.6,3.5-3.2,5.1-4.8C1529,877.9,1527.2,879.6,1525.5,881.2z"/>
			<path class="st4" d="M1547.3,855.3c1.8-1.8,3.6-3.7,5.4-5.5C1550.9,851.7,1549.2,853.5,1547.3,855.3z"/>
			<path class="st4" d="M1532,874.5c-0.2-0.7-0.4-1.6-0.5-2.3c0.8,0.1,1.6,0.3,2.4,0.4C1533.7,873.8,1533.2,874.5,1532,874.5z"/>
			<path class="st4" d="M1540.3,862.9c1.2-1.3,2.4-2.6,3.7-3.9C1542.7,860.3,1541.4,861.6,1540.3,862.9z"/>
			<path class="st4" d="M1553.2,849.1c0.7-1.5,1.5-3,2.2-4.5C1554.7,846.1,1553.9,847.6,1553.2,849.1z"/>
			<path class="st3" d="M912.5,1693.8c-41.2-15.3-75.2-39.2-98.2-77.8c-35.1-58.8-27.3-125.6,13.7-179.1
				c30.2-39.4,71.8-58.2,119.5-59.2c72.8-1.6,135.8,40.7,159.3,115.4c1.7,5.5,4.6,10.6,6.9,15.9c-1.1,11.8-2.9,23.4-3.1,35.2
				c-0.5,38.8-15.2,71.7-41.1,99.8c-39.6,42.9-89.3,57.9-146.3,52.4l0.3,0.2C919.9,1695.6,916.2,1694.7,912.5,1693.8z M856.5,1605.5
				c16.5,30.2,44.9,45.2,76.2,50.1c55.3,8.5,108.9-20.9,131.1-75.3c18-44.2,4.4-108.5-37.8-137c-44.6-38.5-126-35.8-167.2,18.6
				C824.7,1507.1,821.5,1559.9,856.5,1605.5z"/>
			<path class="st3" d="M872.1,1895.3c-5.5,7.4-8.4,15.3-13.1,16.6c-5.9,1.7-14.8-0.3-19.9-4.1c-20.2-15.1-39.4-31.6-59.1-47.4
				c-48.3-38.8-96.8-77.4-144.9-116.3c-11.3-9.1-23.3-17.9-32.4-29c-4.2-5.2-2.2-15.6-2.9-23.6c8.1-0.5,18.8-4.6,23.8-0.9
				c31.3,23.3,61.4,48.2,92,72.5c46.5,37,93.2,73.8,139.4,111.1C861.4,1879.3,865.6,1887.2,872.1,1895.3z"/>
			<path class="st4" d="M1025.9,1443.4c-19.3,1.1-38.8,0.7-57.8,3.7c-60.4,9.5-110.5,68.6-111.2,129.2c-0.1,9.7-0.4,19.5-0.6,29.2
				c-34.9-45.7-31.8-98.3,2.4-143.6C899.9,1407.4,981.4,1404.9,1025.9,1443.4z"/>
		</g>
	</g>
</g>
</svg>
