<?xml version="1.0" encoding="UTF-8"?>
<svg id="Layer_2" data-name="Layer 2" xmlns="http://www.w3.org/2000/svg" viewBox="0 0 2464.93 2464.93">
  <defs>
    <style>
      .cls-1 {
        fill: #fff;
      }

      .cls-1, .cls-2 {
        stroke-width: 0px;
      }

      .cls-2 {
        fill: #1d1d1b;
      }
    </style>
  </defs>
  <g id="Camada_1" data-name="Camada 1">
    <circle class="cls-2" cx="1232.46" cy="1232.46" r="1232.46"/>
    <g id="LZJ11W">
      <g>
        <path class="cls-1" d="M1728.15,585.03c-4.53,0-9.07-.08-13.6.02-6.84.15-14.58-.59-16.39-7.66-1.42-5.52,1.38-12.21,2.63-18.31.89-4.33,3.32-8.57,3.28-12.83-.09-9.03,4.18-16.91,12.6-20.59,8.12-3.55,16.59-1.03,23.08,5.82,2.09,2.21,5.91,3.59,9.05,3.82,6.71.5,13.41.77,16.78,7.64,3.61,7.35.4,13.89-3.96,19.81-2.55,3.47-5.63,6.55-8.61,9.97,5.34,2.31,46.67-13.37,59.47-22.42-2.29-1.29-3.91-2.76-5.75-3.1-1.95-.37-4.1.45-6.17.51-7.86.26-16.36.43-20.55-7.42-4.05-7.59-.29-14.77,4.27-21.49,1.57-2.32,2.2-5.93,1.87-8.78-1.18-9.96,2.31-17.21,10.94-21.13,9.69-4.4,17.48-2.62,24.28,4.29,2.53,2.56,6.67,4.27,10.31,4.84,6.24.98,12.62.88,15.87,7.69,3.44,7.21.21,13.22-3.74,18.92-1.84,2.66-4.74,4.63-6.33,7.4-1.13,1.95-.86,4.71-1.22,7.1,2.1.21,4.49,1.17,6.26.5,16.35-6.18,32.61-12.58,48.81-19.14,1.51-.61,2.37-2.83,3.53-4.3-1.86-.97-3.66-2.62-5.58-2.76-4.68-.36-9.53.63-14.12-.1-12.62-1.99-16.8-10.95-10.26-22.05,3.44-5.83,6.99-10.63,4.91-18.56-2-7.63,4.82-15.48,13.75-18.38,7.73-2.52,14.97-2.24,21.18,4.5,2.26,2.46,6.09,4.26,9.45,4.76,7.22,1.08,15.08,1.64,17.95,9.22,2.99,7.91-1.22,14.77-6.38,21.07-2.7,3.29-6.08,7.83-5.68,11.43.67,6.14,5.46,9.34,12.43,10.23,27.81,3.56,48.59,19.45,65.99,40.13,20.41,24.25,17.24,57.2-6.81,77.85-17.19,14.77-37.37,23.72-58.82,30.13-15.71,4.69-30.57,10.57-43.18,21.81-10.86,9.68-13.57,22.61-17.05,35.4-4.04,14.87-7.55,29.88-11.36,44.82-4.92,19.29-22.82,35.1-42.73,38.05-30.22,4.48-60.44,8.93-90.59,13.8-3.72.6-7.8,2.95-10.43,5.72-33.95,35.66-67.64,71.57-101.46,107.36-27.5,29.12-55.09,58.16-82.62,87.25-50.16,53.01-100.28,106.06-150.47,159.05-39.58,41.8-79.24,83.52-118.83,125.3-37.54,39.62-75.07,79.26-112.52,118.97-5.91,6.26-1.42,17.08,8.61,21.55,9.56,4.27,18.88,1.5,27.66-1.86,7.07-2.7,13.69-6.96,19.96-11.31,16.22-11.24,33-20.76,53.07-23.42,34.54-4.59,57.54,14.96,65.97,47.07,12.2,46.45-6.11,82.12-40.37,111.87-16.72,14.52-35.43,25.99-56.22,33.54-18.33,6.66-37.6,10.9-55.51,18.46-28.02,11.83-52.23,29.22-68.09,56.18-7.64,12.99-11.53,27.06-12.89,42.13-6.6,72.86-22.65,142.88-65.34,204.09-29.18,41.84-67.06,72.78-117.03,86.51-27.22,7.48-55.3,6.73-83.14,4.43-49.87-4.13-97.36-17.13-141.97-40.13-62.08-32-111.14-78.48-149.92-136.02-31.32-46.47-56.04-96.28-71.17-150.41-15.95-57.1-18.78-114.03,6.03-169.76,20.93-47.02,56.69-79.67,101.32-103.59,24.27-13.01,50.4-19.85,77.16-25.87,52.74-11.87,104.38-27.49,150.64-56.79,16.19-10.25,30.95-22.19,37.65-41.24.97-2.76,1.92-5.74,1.89-8.61-.37-36.52,12.54-69.15,30.21-100.04,29.34-51.28,68.8-94.29,112.76-133.23,16.47-14.59,35.83-24.7,58.51-25.13,26.04-.5,44.25,18.22,45.82,44.4,1.82,30.43-7.82,58.38-16.03,86.93-4.86,16.9-7.92,34.74-8.68,52.29-.75,17.53,7.43,32.01,24.34,40.19,6.69,3.23,11.55,2.9,17.24-2.85,32.17-32.49,64.76-64.56,97.25-96.73,49.78-49.29,99.58-98.56,149.41-147.81,50.03-49.45,100.09-98.88,150.17-148.28,37.82-37.31,75.63-74.63,113.66-111.72,5.16-5.03,7.3-9.9,6.35-17.19-4.01-30.9,3.05-58.72,23.71-82.75,1.94-2.26,2.46-7.34,1.31-10.16-.92-2.24-5.27-3.56-8.33-4.31-2.79-.69-5.9-.04-8.86-.04-6.53.01-13.89-.96-15.54-7.69-1.3-5.28.08-12.51,2.98-17.19,3.23-5.2,4.04-9.09,3.13-15.17-1.31-8.75,4.19-14.82,12.32-18.52,8.16-3.71,15.18-3.15,22.11,3.06,3.16,2.84,7.68,4.19,11.62,6.14,5.31,2.62,13.82,4.06,15.22,8.02,1.86,5.26-1.31,12.64-3.35,18.77-.93,2.79-4.65,4.53-6.49,7.17-1.16,1.65-1.19,4.1-1.72,6.18,2.16.42,4.82,1.87,6.41,1.1,17.73-8.54,35.3-17.43,52.92-26.22-.08-.75-.16-1.49-.25-2.24ZM1033.47,1081.59c-1.1-.72-2.21-1.43-3.31-2.15-3.57,2.34-7.45,4.31-10.66,7.07-34.13,29.38-64.17,62.52-89.42,99.79-17.58,25.94-32.09,53.37-35.16,85.42-.93,9.71-.88,19.74-3.47,29.02-8.39,30.14-29.1,51.23-53.96,68.43-56.49,39.08-120.99,57.96-187.09,72.06-45.65,9.73-83.61,31.72-112.17,68.45-34.04,43.77-34.98,93.79-23.44,145.06,9.51,42.25,27.43,81.32,49.01,118.68,36.02,62.37,83.14,113.75,147.79,147.5,52.88,27.61,109.05,39.3,168.5,34.27,9.03-.76,18.28-2.62,26.74-5.79,32.19-12.05,56.8-34.02,76.16-61.86,34.36-49.37,49.06-105.66,54.36-164.49,3.53-39.18,12.89-75.26,40.27-104.91,32.9-35.63,74.44-56.23,120.54-68.22,28.19-7.33,50.66-22.52,68.36-45.07,8.56-10.9,10.68-23.63,7.05-37.06-1.6-5.93-4.59-9.72-11.48-5.58-6.84,4.11-13.81,8.01-20.82,11.81-12.41,6.72-24.33,14.87-37.48,19.61-32.76,11.79-71.46,8.24-94.4-22.25-3.07-4.08-5.92-3.8-9.78-1.26-21.3,14.01-51.82,9.02-69.04-9.77-11.82-12.91-24.67-24.87-37.04-37.27-25.4-25.45-24.36-60.63,2.46-84.52,16.39-14.61,32.52-29.52,49.22-43.76,5.99-5.1,6.12-7.89-.26-12.63-16.19-12.02-27.47-27.83-32.77-47.41-9.17-33.87-4.26-67.01,5.73-99.85,5.38-17.71,10.38-35.54,15.55-53.31ZM1072.6,1422.11c2.21-1.83,4.37-3.3,6.14-5.15,14-14.52,27.98-29.04,41.85-43.68,28.97-30.56,57.85-61.21,86.78-91.8,39.13-41.37,78.25-82.75,117.42-124.09,32.64-34.44,65.42-68.75,98.02-103.24,45.01-47.63,89.88-95.39,134.86-143.05,35.63-37.74,71.29-75.44,107.08-113.03,3.74-3.92,4.04-6.77-.16-10.23-2.28-1.88-4.36-4.05-6.31-6.27-3.42-3.89-6.42-4.3-10.33-.28-6.82,7.01-14.17,13.49-21.14,20.36-49.02,48.34-98.01,96.71-146.98,145.1-51.28,50.67-102.52,101.39-153.81,152.06-47.92,47.34-95.38,95.16-143.96,141.82-48.11,46.2-97.32,91.26-146.2,136.66-4.31,4.01-4.69,6.84-.37,10.81,10.91,10.04,21.64,20.28,32.48,30.4,1.24,1.16,2.7,2.1,4.63,3.59ZM1955.88,590.47c-5.13-4.55-9.21-8.36-13.49-11.94-10.47-8.76-21.5-10.55-34.6-5.01-29.99,12.67-60.66,23.74-90.52,36.7-39.32,17.08-78.22,35.12-117.04,53.32-6.47,3.03-12.63,8.13-17.1,13.73-13.02,16.35-11.25,40.06,3.26,54.56,8.82,8.81,17.64,17.64,26.98,25.87,2.71,2.38,7.42,4.18,10.9,3.74,26.48-3.34,52.91-7.11,79.26-11.35,2.88-.46,6.59-4.31,7.46-7.3,3.31-11.35,5.82-22.95,8.25-34.53,4.37-20.79,10.46-40.56,25.5-56.73,19.92-21.41,44.89-33.25,72.47-40.96,13.65-3.81,26.96-8.73,38.66-20.12Z"/>
        <path class="cls-1" d="M890.77,1667.87c-1.29,9.97-5.84,15.99-15.57,19.5-8.16,2.95-17.19.48-22.75-7.38-9.56-13.53-18.55-27.46-27.79-41.22-12.86-19.16-25.85-38.23-38.53-57.51-5.44-8.26-4.91-18.81.99-25.68,6.15-7.16,14.45-8.4,22.69-5.39,4.37,1.59,8.73,5.26,11.39,9.15,21.68,31.76,43.04,63.74,64.27,95.8,2.49,3.76,3.57,8.46,5.3,12.73Z"/>
        <path class="cls-1" d="M1046.55,1510.58c-1.19,9.57-5.19,16.16-12.73,19.56-7.98,3.6-16.56,3.38-23.17-3.25-10.66-10.69-20.84-21.87-31.14-32.91-16.37-17.53-32.74-35.06-49-52.71-13.22-14.35-8.79-32.68,9.63-36.01,6-1.08,14.95,2.42,19.46,6.92,20.13,20.06,39.14,41.24,58.56,62.01,6.47,6.92,13.31,13.55,19.26,20.89,3.73,4.6,6.13,10.29,9.13,15.49Z"/>
        <path class="cls-1" d="M949.27,1608.4c-4.92-2.7-10.98-4.41-14.72-8.34-26.15-27.5-51.83-55.45-77.64-83.28-10.03-10.81-10.3-23.51-.74-32.27,8.68-7.95,21.28-6.81,30.82,3.39,26.13,27.95,52.2,55.96,78,84.21,9.28,10.16,8.13,23.76-2.29,31.06-3.42,2.4-7.97,3.17-13.43,5.22Z"/>
        <path class="cls-1" d="M958.13,1852.44c1.93,15.07-13.13,26.14-25.4,26.29-14.34.17-25.48-11.54-25.53-26.31-.05-15.92,10.25-26.68,25.56-26.68,15.47,0,25.42,10.47,25.37,26.7Z"/>
        <path class="cls-1" d="M922.48,1755.95c.05-14.66,11.47-26.54,25.47-26.52,14.25.02,26.59,12.66,26.42,27.05-.17,14.74-11.37,25.96-26.03,26.06-15.24.11-25.91-10.87-25.86-26.59Z"/>
      </g>
    </g>
  </g>
</svg>