<?xml version="1.0" encoding="utf-8"?>
<!-- Generator: Adobe Illustrator 27.4.1, SVG Export Plug-In . SVG Version: 6.00 Build 0)  -->
<svg version="1.1" id="Layer_2" xmlns="http://www.w3.org/2000/svg" xmlns:xlink="http://www.w3.org/1999/xlink" x="0px" y="0px"
	 viewBox="0 0 2464.9 2464.9" style="enable-background:new 0 0 2464.9 2464.9;" xml:space="preserve">
<style type="text/css">
	.st0{fill:#CBE5F4;}
	.st1{opacity:5.000000e-02;}
	.st2{opacity:0.25;fill:#FFFFFF;}
	.st3{fill:#86C7F7;}
	.st4{fill:#002342;}
</style>
<g id="Camada_1_00000051346220602954341790000015562722552995191483_">
	<path class="st0" d="M2428.9,1232.5c0,624.7-478.7,1137.5-1089.3,1191.7c-35.3,3.1-71.1,4.7-107.2,4.7c-37.3,0-74.3-1.7-110.8-5.1
		C512.8,2367.9,36,1855.9,36,1232.5c0-641,504.1-1164.2,1137.4-1195c19.6-1,39.2-1.4,59-1.4c18.7,0,37.4,0.4,55.9,1.3
		C1923.2,66.5,2428.9,590.4,2428.9,1232.5z"/>
	<g>
		<path class="st1" d="M2428.9,1234.2c0,624.6-478.7,1137.5-1089.3,1191.7c500.5-161.6,862.6-631.4,862.6-1185.7
			c0-573.1-387-1055.8-913.9-1201.1C1923.2,68.2,2428.9,592.2,2428.9,1234.2z"/>
		<path class="st2" d="M1121.7,2425.6C512.8,2369.7,36,1857.6,36,1234.2C36,593.2,540.1,70,1173.5,39.2
			c-526.6,145.5-913.3,628.1-913.3,1201C260.1,1794.1,621.7,2263.6,1121.7,2425.6z"/>
	</g>
	<g>
		<path class="st3" d="M1746.3,1082.4l-152-282.1c-76.1-60-248.4,119-308.4,195.2l-624.8,763.4c15,53.5,50.3,96.1,126.4,156.1
			l186.8,147.2c76.1,60,186.5,46.9,246.5-29.2l554.7-703.9C1835.5,1252.8,1822.5,1142.4,1746.3,1082.4z"/>
		<g>
			<path class="st4" d="M1111.7,1010.7c170-212.6,340-425.3,510-637.9c5.4-6.8,10.7-13.8,16.9-19.9c12.6-12.6,27-14,41.1-3
				c25.2,19.6,49.9,39.9,74.9,59.7c16.8,13.4,15.2,28.9,7.6,46.8c-43.9,102.7-86.9,205.9-131.3,308.4c-7.7,17.7-7.1,31.5,1.8,48.6
				c66.1,125.9,130.5,252.8,197,378.5c21.5,40.6,17.7,75.3-10.5,110.5c-217,270.9-433.4,542.1-650.3,813
				c-33.7,42.1-80.8,47.3-122.6,14c-145.9-116.3-291.6-232.8-437.2-349.6c-40.9-32.8-46.7-76.2-16.9-119.1
				c5-7.1,10.6-13.8,16.1-20.6C776.2,1430.3,944,1220.5,1111.7,1010.7z M1144.9,1058.5c-166.8,208.7-333.7,417.3-500.5,626
				c-22.1,27.6-21.4,35.5,5.5,57c141.1,113,282.4,225.8,423.6,338.6c6.2,5,12.6,10.3,19.8,13.3c16.3,6.8,25.3-4.3,34.2-15.5
				c10.1-12.9-1.1-17.9-8.5-24.1c-11.7-9.8-23.9-19-35.6-28.7c-17.3-14.3-21.3-29.8-11.7-43.1c10-13.9,27.1-14.1,46.2,0.1
				c12.2,9.1,24.3,18.4,35.8,28.5c11.4,10,19.7,10.7,30.2-2.5c175.1-219.7,350.5-439.1,526.4-658.3c11.1-13.9,8.6-21.3-4.3-31.3
				c-40.7-31.6-80.5-64.4-120.7-96.6c-56.7-45.3-113.3-90.6-170.5-135.3c-5-3.9-15.8-6.7-20-3.9c-24.5,15.8-24.9,31-3.1,49.5
				c8.3,7,15.9,14.9,24.4,21.6c56.4,44.5,113,88.7,169.3,133.4c19.9,15.8,21.6,28.6,6.5,48.3c-18.5,24.2-37.6,48-57.2,71.3
				c-15.1,18-28.7,19.4-47.1,4.8c-39.7-31.6-78.7-64-118.4-95.7c-28.9-23.1-58.1-45.8-87.5-68.1c-3.9-3-11.3-5.4-15.2-3.8
				c-23.6,10-27.4,36.2-7.9,51.6c64.9,51.3,130,102.3,194.9,153.6c21.7,17.2,23.2,29.8,6.4,51.5c-16.9,21.8-34.2,43.3-51.8,64.6
				c-19.9,24.2-31.6,25.4-56.6,5.4c-64.7-51.6-129.9-102.6-193.6-155.4c-19.1-15.8-26-5-37.4,7.9c-14.3,16.1-4.3,23.1,7.6,32.5
				c63.8,50.4,127.5,100.9,190.6,152.2c28.2,22.9,28.6,33.4,6.4,61.4c-14.9,18.8-29.8,37.5-45,56.1c-22.7,27.8-33.4,29.1-61.2,6.9
				c-64.1-51.1-128.1-102.5-192.4-153.4c-5.7-4.5-17.4-10.6-19.8-8.5c-9.6,8.3-18.3,18.8-23.6,30.2c-1.5,3.1,8.8,13.3,15.1,18.4
				c65.5,52.9,131.5,105.2,196.8,158.4c19.5,15.9,20.1,28.8,4.8,48.6c-16.4,21.3-33.3,42.1-50.3,62.9c-22.6,27.7-33.4,28.7-61.3,6.4
				c-63.5-50.8-127.4-101.1-190.2-152.7c-15.7-12.9-24.4-11.2-36.4,4.3c-11.1,14.3-10,22.6,4,33.6c53.6,42.2,106.6,85.2,159.6,128.2
				c14.2,11.5,19.9,26.4,7.2,41.6c-11.9,14.2-27.4,11.9-40.9,1.2c-66-52.3-131.7-104.9-197.4-157.7c-14.9-12-16.2-26.8-6-42.5
				c4.7-7.3,10.4-14,15.8-20.8c184.5-230.8,369-461.6,553.5-692.4c4.5-5.7,8.9-11.5,13.8-16.8c13.4-14.5,28-17.1,44-4.1
				c15.8,12.8,31.5,25.7,47.4,38.4c94.2,75.1,188.2,150.3,283,224.7c4.1,3.2,16.9,1.7,20.9-2.3c27.8-27.5,28.4-34.2,9.8-70.2
				c-65.4-126.3-130.4-252.8-197.1-378.4c-13.9-26.1-15.3-47.7-3.1-75.3c42.5-95.4,82.2-192.1,122.9-288.4
				c9.8-23.2,5.5-31.3-23.6-48.5c-18.7-11.1-22.8,6.9-29.7,15.5C1478.5,641.1,1311.7,849.8,1144.9,1058.5z M1403.8,1275.8
				C1403.8,1275.8,1403.7,1275.8,1403.8,1275.8c28.3,22.7,57.2,44.7,84.7,68.3c15,12.9,22.4,5.2,31-6.6c8.2-11.2,18.6-19.9,1-33.5
				c-57.3-44.4-113.9-89.7-169.9-135.8c-16.9-13.9-23.3-2.7-32.5,8.1c-9.5,11.2-15.2,20.1,0.4,31.8
				C1347.6,1229.8,1375.4,1253.1,1403.8,1275.8z M1176.1,1357.3c1.7,2.7,2.5,5,4.1,6.3c60.4,48.6,120.9,97.1,181.2,145.8
				c16,12.9,21.2-1.7,28.7-10.4c8.2-9.5,16.9-18,1.4-30.2c-52.6-41.1-104.1-83.6-156.6-124.7
				C1200.7,1317.3,1200.2,1318,1176.1,1357.3z M1243,1680.7c6-6.4,9.7-9.9,12.9-13.7c19.3-23.3,19.3-23.4-3.6-41.7
				c-53.7-43-108-85.1-160.8-129.2c-18.5-15.4-25.1-4.1-35.7,8.1c-11.5,13.2-9.3,21.2,4.1,31.4c35.8,27.1,70.6,55.4,105.7,83.3
				C1191,1639,1216.3,1659.3,1243,1680.7z M1045.3,1727.5c-28.9-23.1-58.4-45.5-86.5-69.6c-15.1-12.9-22.1-4.6-31.2,6.6
				c-9.1,11.3-15,20.2,0.2,32.2c57.1,44.7,113.8,90,170.1,135.8c15.2,12.4,22.4,4.4,31.4-6.9c8.9-11.3,15.5-20-0.5-31.8
				C1100.3,1772.7,1073.1,1749.7,1045.3,1727.5z"/>
			<path class="st4" d="M1264.9,1031.5c11.7,9.5,14,27.8,3.7,38.3c-11,11.2-24.6,13-36.8,2.9c-12-9.9-13.8-23.5-4.9-36.7
				C1235.7,1023.1,1252.6,1021.6,1264.9,1031.5z"/>
			<path class="st4" d="M1134.1,1194.3c12,9.4,14.5,27.3,4.3,38.2c-10.8,11.6-24.5,13.4-36.8,3.8c-12.2-9.6-14.2-23.3-5.5-36.6
				C1104.5,1186.7,1121.8,1184.7,1134.1,1194.3z"/>
			<path class="st4" d="M1199.6,1113.2c11.9,9.7,13.9,27.6,3.5,38.2c-11.1,11.3-24.6,12.9-36.8,2.9c-12-9.9-13.8-23.5-4.7-36.6
				C1170.4,1104.8,1187.5,1103.3,1199.6,1113.2z"/>
			<path class="st4" d="M1030.5,1281.3c11.3-13.5,27.8-14.9,39.5-4.4c12.2,11.1,12.3,24.1,3.5,36.8c-8.1,11.8-28.4,13.4-38.4,3.2
				C1024.1,1305.9,1022.8,1293.2,1030.5,1281.3z"/>
			<path class="st4" d="M1003.4,1357.4c12.1,9.4,14.7,27.3,4.6,38.2c-10.8,11.6-24.5,13.4-36.8,3.9c-12.3-9.5-14.3-23.2-5.6-36.5
				C973.9,1350,991.2,1347.9,1003.4,1357.4z"/>
			<path class="st4" d="M900.3,1444.2c9.3-12.5,26-14.9,38-5c12.7,10.4,14.1,23.8,5.3,36.4c-9,13-22.8,14.7-36.3,6.7
				C894.9,1474.9,891.8,1455.7,900.3,1444.2z"/>
			<path class="st4" d="M876,1523.1c9.8,9.2,10.8,21.9,2.1,34.8c-8.1,12.1-28.1,14.2-38.3,4.2c-10.9-10.8-13.5-23.7-3.9-36.8
				C845.2,1512.6,861.7,1511.2,876,1523.1z"/>
			<path class="st4" d="M806.5,1601.4c13.4,10.3,15.9,28.1,5.7,39c-10.7,11.4-23.8,13.2-36.8,4.1c-12.2-8.5-14-27.4-4.2-38.3
				C782,1594.3,794.4,1592.9,806.5,1601.4z"/>
		</g>
	</g>
</g>
</svg>
