<?xml version="1.0" encoding="utf-8"?>
<!-- Generator: Adobe Illustrator 27.4.1, SVG Export Plug-In . SVG Version: 6.00 Build 0)  -->
<svg version="1.1" id="Layer_2" xmlns="http://www.w3.org/2000/svg" xmlns:xlink="http://www.w3.org/1999/xlink" x="0px" y="0px"
	 viewBox="0 0 2464.9 2464.9" style="enable-background:new 0 0 2464.9 2464.9;" xml:space="preserve">
<style type="text/css">
	.st0{fill:#CBE5F4;}
	.st1{opacity:5.000000e-02;}
	.st2{opacity:0.25;fill:#FFFFFF;}
	.st3{fill:#86C7F7;}
	.st4{fill:#002342;}
</style>
<g id="Camada_1_00000051346220602954341790000015562722552995191483_">
	<path class="st0" d="M2428.9,1232.5c0,624.7-478.7,1137.5-1089.3,1191.7c-35.3,3.1-71.1,4.7-107.2,4.7c-37.3,0-74.3-1.7-110.8-5.1
		C512.8,2367.9,36,1855.9,36,1232.5c0-641,504.1-1164.2,1137.4-1195c19.6-1,39.2-1.4,59-1.4c18.7,0,37.4,0.4,55.9,1.3
		C1923.2,66.5,2428.9,590.4,2428.9,1232.5z"/>
	<g>
		<path class="st1" d="M2428.9,1234.2c0,624.6-478.7,1137.5-1089.3,1191.7c500.5-161.6,862.6-631.4,862.6-1185.7
			c0-573.1-387-1055.8-913.9-1201.1C1923.2,68.2,2428.9,592.2,2428.9,1234.2z"/>
		<path class="st2" d="M1121.7,2425.6C512.8,2369.7,36,1857.6,36,1234.2C36,593.2,540.1,70,1173.5,39.2
			c-526.6,145.5-913.3,628.1-913.3,1201C260.1,1794.1,621.7,2263.6,1121.7,2425.6z"/>
	</g>
	<g>
		<g>
			<path class="st3" d="M1031.8,1181.5c38.5-24.3,76.9-48.7,115.4-73c94.7-77.7,208.7-159.4,343.2-236.1
				c64.4-36.7,126.9-68.5,186.7-96.1c-30.5-41.6-60.9-83.2-91.4-124.8c-46.4-36.2-92.8-72.4-139.2-108.6
				c-81.7,69.2-418.5,440.8-462.9,520.8C885.6,1240.2,1129.2,1082.6,1031.8,1181.5z"/>
		</g>
		<g>
			<circle class="st3" cx="1597.1" cy="622.2" r="173"/>
		</g>
		<g id="GVzYdO_00000085212615603522920890000001761082028556687516_">
			<g>
				<g>
					<path class="st4" d="M1746.6,529.8c-26.2-129.3-177.7-200.9-293.7-138.6c-10.8,5.8-21.1,9.2-33.8,8.7
						c-31.3-1.1-52.9,25.4-48.4,56.5c0.7,4.6-0.8,10.2-3.1,14.3c-14.7,26.1-27.2,54-25.8,83.6c1.5,31.7-12.3,52.2-31.9,74.5
						c-120.5,137.4-239.7,276-359,414.4c-6.8,7.9-12.9,17.2-16.6,26.9c-10.5,27.9-7.5,55.2,7.8,80.6c-0.3,0.8-0.4,1.2-0.6,1.4
						c-2.2,2.2-4.4,4.3-6.6,6.4c-2.6,2.4-5.1,4.9-7.4,7.4c14.1,3.9,22.9,14.7,26.4,27.2c3.6-4,7.4-7.8,11.4-11.5
						c2-1.9,7.9-1.6,10.9-0.1c36.3,17.3,70.5,13.5,100.8-12.3c72.4-61.7,144.1-124.3,216-186.6c73.2-63.5,146.4-126.9,219.2-190.8
						c9.7-8.5,19.4-12.4,32.3-12.1c38.3,0.8,73.9-9.3,106.9-28.8c4.7-2.8,10.6-4.8,16.1-4.9c29.4-0.7,49.9-21.5,50.2-51.3
						c0-4.2,1.1-9,3.3-12.5C1749.7,634.9,1757.6,584,1746.6,529.8z M1048.9,1143.9c-22.3,16.1-51.9,13.3-69.7-6.9
						c-18.5-21-17.5-50.5,4.3-73.1c22.8,23.2,45.1,45.8,67.3,68.6C1055.3,1136.9,1053.9,1140.3,1048.9,1143.9z M1432,812
						c-91.4,79.1-182.9,158.3-274.3,237.4c-21.8,18.9-43.6,37.9-65.3,56.8c-4.2,3.6-8,6.3-13.2,0.9c-23.1-24-46.3-47.8-70.7-72.9
						c113.1-130.6,226.8-261.8,341.9-394.6c23,64.8,66.7,106.6,130,130.2C1463.4,784.7,1447.8,798.4,1432,812z M1426.9,693.2
						c-58.3-58.6-59.8-147.9-28.6-195.5c75.1,75,149.6,149.5,224.1,223.9C1581.2,750.6,1488.7,755.3,1426.9,693.2z M1675.3,705.5
						c-5.4,5.4-10.2,4-15.1-0.8c-25.5-25.5-51.1-50.8-76.6-76.3c-54.9-54.8-109.7-109.7-164.5-164.6c-3.4-3.4-7.3-6.7-9.4-10.8
						c-1.4-2.8-1.4-7.7,0.1-10.4c1.9-3.1,6.1-4.8,10.2-7.7c4.5,3.8,8.5,6.8,12.1,10.4c50.8,50.7,101.5,101.4,152.2,152.1
						c28.4,28.4,56.8,56.8,85.2,85.2c2.2,2.2,4.2,4.5,6.4,6.7C1681.3,694.9,1680.6,700.2,1675.3,705.5z M1698.8,643.6
						c-3.2,7.9-5.9,8.5-12,2.4c-51.8-52.1-103.9-104-155.8-156c-19.7-19.7-39.2-39.5-58.8-59.2c-1.4-1.4-2.6-3.1-4.4-5.2
						c103.2-53.8,229.7,12.5,244.3,126.5C1716.3,584.1,1710.9,614.1,1698.8,643.6z"/>
				</g>
				<g>
					<path class="st4" d="M1315.2,784.2c6,5,12.5,8.5,16,13.9c4.4,6.9,2.3,14.6-3.6,20.7c-21,21.2-42.1,42.4-63.2,63.6
						c-7.7,7.8-15.3,15.8-23.3,23.3c-10.2,9.6-22,9.9-30,1.4c-7.5-8-6.4-18.1,3.5-28c27.8-28.1,55.6-56.2,83.6-83.9
						C1302.3,791,1308.1,788.7,1315.2,784.2z"/>
				</g>
			</g>
		</g>
		<g>
			<path class="st4" d="M900.7,2096.5l-18-37.3c170.8-82.6,325.2-187.2,459.1-310.8c109.5-101.1,337.2-311.5,286.4-432.3
				c-17.6-41.7-68.2-69.1-109.1-74.5c-56.7-7.5-100,27.1-178.5,90c-13.1,10.5-27.1,21.7-42.1,33.5
				c-184.5,144.5-343.7,269.2-490,233.6c-19.4-4.7-78.6-19.2-103-68.3c-42.8-86.2,46.2-231.5,232.4-379.1l25.7,32.4
				c-162.2,128.6-253.2,263.6-221.1,328.3c15.9,31.9,60.9,42.9,75.7,46.5c126.6,30.9,278.6-88.1,454.6-226
				c14.9-11.7,28.7-22.8,41.8-33.2c81.6-65.4,135.6-108.5,209.9-98.7c51,6.8,117.1,40.8,141.8,99.5
				c62.1,147.5-171.1,363-296.4,478.7C1233,1905.3,1075.2,2012.2,900.7,2096.5z"/>
		</g>
	</g>
</g>
</svg>
