<?xml version="1.0" encoding="UTF-8"?>
<svg id="Layer_2" data-name="Layer 2" xmlns="http://www.w3.org/2000/svg" viewBox="0 0 2464.93 2464.93">
  <defs>
    <style>
      .cls-1 {
        fill: #fff;
      }

      .cls-1, .cls-2 {
        stroke-width: 0px;
      }

      .cls-2 {
        fill: #1d1d1b;
      }
    </style>
  </defs>
  <g id="Camada_1" data-name="Camada 1">
    <circle class="cls-2" cx="1232.46" cy="1232.46" r="1232.46"/>
    <g id="_7srSj5.tif" data-name="7srSj5.tif">
      <g>
        <path class="cls-1" d="M870.25,2005.28c-14.4-3.63-28.96-6.72-43.16-10.98-86.88-26.08-159.68-75.93-222.9-138.98-77.16-76.96-126.64-170.13-141.07-278.76-16.88-127.1,30.53-206.2,149.02-256.07,35.61-14.99,71.94-28.27,107.94-42.32.94-.37,1.92-.61,2.86-.96,63.82-23.99,107.86-65.54,123.95-134.32,6.14-26.24,16.34-51.75,26.75-76.74,23.7-56.88,61.14-102.76,115.46-132.87,78.99-43.79,174.43-1.47,192.74,85.58,3.41,16.19.49,33.72.49,52.79,15.68-15.91,30.45-30.72,45.05-45.71,81.37-83.57,162.61-167.26,244.14-250.68,9.15-9.36,14.2-18.74,14.65-32.65.83-25.5,13.01-47.55,29.98-65.95,14.93-16.19,30.2-33.22,48.48-44.95,78.58-50.44,157.66-100.19,237.98-147.79,32.62-19.33,69.61-29.69,108.64-21.33,45.64,9.77,78.56,34.44,91.29,81.46.35,1.29,1.69,2.3,2.57,3.44v39.24c-9.04,30.35-23.13,57.4-48.21,78.01-25.24,20.74-54.14,32.65-86.22,36.31-10.18,1.16-15.89,4.76-21.06,13.54-30.26,51.38-65.49,98.9-111.66,137.38-26.53,22.11-55.39,39.8-90,46.61-5.01.99-10.25,4.41-13.9,8.16-133.4,136.86-266.62,273.89-399.84,410.93-1.61,1.66-2.78,3.74-7.2,9.81,18.12-2.08,32.24-3.31,46.23-5.41,11.91-1.79,23.58-5.22,35.5-6.83,31.5-4.27,59.28,2.33,78.19,30.33,19.73,29.23,24.26,61.22,3.76,90.39-15.89,22.61-36.61,42.65-58.11,60.27-25.17,20.62-52.48,39.17-80.7,55.42-54.43,31.33-82.03,77.06-89.74,139.33-7.88,63.62-27.52,124.57-62.32,179.4-26.84,42.29-56.53,82.89-101.35,107.46-22.8,12.5-49.15,18.53-73.89,27.48h-54.33ZM1244.84,1391.8c-35.43-.33-66.95-11.17-90.03-37.1-56.6-63.58-82.82-136.99-62.14-222.35,5.64-23.3,15.15-45.67,22.99-68.43,6.03-17.5,6.21-34.08-4.62-50.32-23.92-35.84-57.71-44.41-95-21.62-38.45,23.5-66.21,57.02-82.64,98.89-13.18,33.59-24.74,67.85-36.02,102.14-16.26,49.44-45.74,88.5-91.47,113.2-32.56,17.58-66.92,31.91-100.74,47.08-37.03,16.61-75.47,30.44-111.29,49.3-39.21,20.63-62.87,55.77-66.77,99.92-2.61,29.58-2.15,60.74,4.25,89.58,24.7,111.25,84.12,200.84,176.39,268.28,47.36,34.62,97.01,64.67,155.45,76.7,53.21,10.95,99.34-1.13,136.91-42.12,27.06-29.52,52.2-60.96,65.22-98.72,15.15-43.92,28.82-88.99,36.59-134.67,10.97-64.54,40.28-114.71,95.31-150.06,16.9-10.86,33.45-22.3,49.85-33.91,22.94-16.25,46.1-32.28,68.11-49.74,8.35-6.62,15.39-16.13,20.13-25.75,7.55-15.34-1.21-25.82-17.91-23-24.21,4.09-48.38,8.47-72.56,12.72ZM1623.17,836.37c24.25-.94,44.13-11.42,62.27-25.4,50.31-38.75,87.18-88.74,116.66-144.18,10.7-20.13,23.67-29.54,47.16-29.38,29.4.2,56.62-9.39,76.39-33,13.24-15.82,20.48-33.77,10.77-54.22-7.95-16.74-33.05-29.47-53.99-25.13-18.95,3.93-39.07,8.33-55.34,18.09-74.46,44.64-148.06,90.73-221.19,137.51-15.38,9.84-29.26,23.4-40.56,37.8-8.13,10.36-14.6,24.82-15.16,37.74-1.13,25.87,36.82,71.04,61.72,77.95,3.86,1.07,7.88,1.56,11.27,2.21ZM1509.48,828.97c-1.85,1.68-4.51,3.85-6.89,6.3-69.75,71.59-139.49,143.2-209.2,214.82-44.84,46.07-89.74,92.1-134.33,138.41-3.77,3.91-8.11,10.15-7.62,14.82,2.91,27.78,13.16,53.21,27.74,78.37,129.29-132.91,257.7-264.92,384.85-395.63-18.76-19.64-36.33-38.03-54.54-57.09Z"/>
        <path class="cls-1" d="M874.47,1718.92c-4.08-2.36-12.97-5.37-18.94-11.31-33.06-32.95-65.59-66.44-97.93-100.1-14.32-14.9-14.15-33.98-.65-46.93,12.81-12.29,32.25-12.29,45.89,1.49,33.9,34.24,67.38,68.9,100.66,103.73,9.59,10.04,11.03,22.46,4.92,34.93-5.79,11.82-15.87,17.63-33.95,18.19Z"/>
        <path class="cls-1" d="M1012.32,1579.71c-.42,17.48-6.78,27.58-19.49,33.13-13.49,5.9-25.73,2.84-35.85-7.36-27.2-27.44-54.16-55.12-81.17-82.76-7.01-7.17-14.33-14.13-20.64-21.89-11.09-13.65-9.78-31.9,2.38-43.59,11.58-11.13,30.45-12.83,42.4-1,35.63,35.3,70.44,71.46,105.04,107.78,4.46,4.68,5.82,12.31,7.32,15.69Z"/>
        <path class="cls-1" d="M939.99,1815.82c-.06,19.83-15.42,35.78-34.68,35.99-20.37.23-35.56-15.3-35.54-36.33.02-20.58,16.15-36.92,35.88-36.35,18.92.54,34.4,17.09,34.34,36.69Z"/>
      </g>
    </g>
  </g>
</svg>