<?xml version="1.0" encoding="UTF-8"?>
<svg id="Layer_2" data-name="Layer 2" xmlns="http://www.w3.org/2000/svg" viewBox="0 0 2464.93 2464.93">
  <defs>
    <style>
      .cls-1 {
        fill: #fff;
      }

      .cls-1, .cls-2 {
        stroke-width: 0px;
      }

      .cls-2 {
        fill: #1d1d1b;
      }
    </style>
  </defs>
  <g id="Camada_1" data-name="Camada 1">
    <circle class="cls-2" cx="1232.46" cy="1232.46" r="1232.46"/>
    <g id="SxSoJg.tif">
      <path class="cls-1" d="M553.29,1111.84c0-120.02,0-240.04,0-360.06.97,1.76,1.95,3.51,3.6,6.49.72-2.87,1.27-4.31,1.43-5.8,3.14-29.29,16.89-53.65,36.09-75.05,31.26-34.85,71.97-48.01,117.46-48.08,152.13-.23,304.26-.09,456.39-.09,193.62,0,387.24-.05,580.86.04,39.67.02,76.72,9.06,107.88,35.07,37.74,31.5,54.17,73.12,54.39,121.29.43,94.23.2,188.46.04,282.69-.02,11.57-.7,23.21-2.07,34.7-8.59,71.76-68.07,127.4-140.4,129.46-49.93,1.42-99.94.42-149.91.18-11.4-.05-21.24,2.68-30.88,9.13-80.34,53.81-160.93,107.25-241.41,160.85-15.6,10.39-31.04,21.03-46.8,31.72,116.08,77.22,231.37,153.91,347.5,231.17,0-6.16-.27-11.19.04-16.18,1.91-29.94,27.78-47.36,53.1-35.55,16.59,7.74,22.16,22.28,22.22,39.41.14,45.86.08,91.72.04,137.58-.02,19.56-6.62,35-26.67,41.93-1.35.47-2.34,1.96-3.49,2.98h-15.09c-1.16-1.01-2.15-2.48-3.5-2.96-20.36-7.24-26.86-22.97-26.7-42.93.08-10.37.38-20.76-.21-31.09-.17-3.06-2.27-7.1-4.77-8.77-35.27-23.51-70.88-46.51-106.19-69.97-99.39-66.04-198.72-132.2-297.92-198.52-4.82-3.22-7.92-2.94-12.36.07-28.35,19.15-56.76,38.22-85.33,57.05-105.67,69.65-211.37,139.23-317.2,208.64-4.6,3.02-6.27,6.06-6.13,11.32.32,11.62.3,23.25.05,34.87-.39,17.77-9.93,32.05-24.24,36.88-27.21,9.19-50.97-8.62-51.1-38.72-.2-46.81-.09-93.62.01-140.43,0-4.04.63-8.14,1.45-12.11,3.91-18.96,16.92-30.38,35.03-30.98,17.4-.57,32.99,11.78,36.96,30.13,1.73,8.02,2,16.36,2.99,25.12,115.21-76.75,229.78-153.07,345.29-230.02-2.29-1.87-4.22-3.75-6.43-5.22-94.8-63.29-189.58-126.62-284.59-189.59-5.34-3.54-12.67-5.69-19.1-5.75-48.73-.47-97.46-.29-146.19-.25-40.73.03-76.88-12.67-106.16-41.13-26.42-25.69-45.29-55.53-41.23-95.24-2.38,5.55-4.56,10.63-6.74,15.72ZM628.75,855.85v11.15c0,71.32,0,142.64,0,213.96,0,43.24,33.11,76.16,76.4,76.16,350.87,0,701.74.03,1052.6,0,5.95,0,12.03.03,17.81-1.12,35.21-7.04,60.23-37.45,60.38-74.16.29-73.52.1-147.04.08-220.56,0-1.77-.42-3.54-.61-5.07h-74.82c0,4.19,0,7.64,0,11.08,0,44.61.1,89.23-.04,133.84-.08,23.78-14.15,41.23-34.03,42.82-23.34,1.87-41.25-15.13-41.33-39.76-.16-46.18-.05-92.37-.05-138.55v-9.63h-37.73v10.7c0,44.61.09,89.23-.05,133.84-.05,15.12-4.12,28.71-17.72,37.41-12.44,7.95-25.42,8.31-38.39,1.21-13.53-7.41-19.1-19.72-19.19-34.39-.27-46.18-.1-92.37-.1-138.55,0-3.35,0-6.69,0-10.09h-37.73v10.93c0,44.61.09,89.23-.06,133.84-.05,14.77-4.12,28.11-17.22,36.75-12.29,8.1-25.3,8.74-38.38,1.81-13.6-7.21-19.61-19.29-19.69-34.05-.27-46.5-.1-93-.1-139.5,0-3.32,0-6.63,0-10.45-41.84,0-82.36.21-122.88-.19-7.77-.08-9.45,2.49-9.36,9.69.51,40.84.61,81.68.78,122.52.03,7.54.09,15.1-.47,22.61-1.8,24.09-25.46,39.44-48.24,31.52-17.57-6.11-26.78-19.84-26.81-42.02-.05-42.41.44-84.82.69-127.23.03-5.46,0-10.92,0-16.9-10.89,0-20.01.47-29.07-.14-7.75-.52-10.24,1.87-10.09,9.9.62,33.61.62,67.23.72,100.84.04,14.76.43,29.57-.48,44.28-1.46,23.62-25.08,38.95-47.49,31.5-17.82-5.92-27.38-19.6-27.43-41.55-.11-42.72.41-85.45.65-128.17.03-5.24,0-10.47,0-16.06h-133.28c0,4.01,0,7.41,0,10.82,0,44.93.13,89.86-.06,134.78-.09,23.19-14.07,40.43-33.61,42.27-23.23,2.19-41.62-14.88-41.72-39.35-.2-46.18-.06-92.37-.06-138.55,0-3.33,0-6.66,0-9.84h-37.73c0,4.17,0,7.61,0,11.05,0,44.61.1,89.23-.04,133.84-.07,23.8-14.1,41.24-33.99,42.86-23.33,1.91-41.29-15.11-41.38-39.72-.16-46.18-.05-92.37-.05-138.55,0-3.29,0-6.59,0-9.69h-37.73c0,3.9,0,7.29,0,10.67,0,44.61.08,89.23-.05,133.84-.04,15.12-4.09,28.72-17.69,37.43-12.43,7.97-25.42,8.35-38.39,1.26-13.53-7.39-19.15-19.66-19.23-34.36-.25-46.18-.09-92.37-.09-138.55,0-3.35,0-6.7,0-10.43h-75.46ZM629.23,779.53h1206.64c.17-2.01.41-3.53.4-5.04-.12-37.89-34.05-69.82-74.35-69.82-352.05-.02-704.1-.02-1056.15.07-6.23,0-12.57.67-18.66,1.96-34.78,7.37-60.45,39.5-57.87,72.84ZM1000.81,1232.98c-.25.53-.49,1.07-.74,1.6,12.27,7.84,24.64,15.53,36.79,23.56,62.57,41.4,125.13,82.83,187.55,124.45,5.41,3.61,9.55,4.22,15.18.5,73.6-48.62,147.31-97.05,220.97-145.57,1.56-1.03,2.81-2.53,4.99-4.54h-464.74Z"/>
    </g>
  </g>
</svg>