<?xml version="1.0" encoding="utf-8"?>
<!-- Generator: Adobe Illustrator 27.4.1, SVG Export Plug-In . SVG Version: 6.00 Build 0)  -->
<svg version="1.1" id="Layer_2" xmlns="http://www.w3.org/2000/svg" xmlns:xlink="http://www.w3.org/1999/xlink" x="0px" y="0px"
	 viewBox="0 0 2464.9 2464.9" style="enable-background:new 0 0 2464.9 2464.9;" xml:space="preserve">
<style type="text/css">
	.st0{fill:#CBE5F4;}
	.st1{opacity:5.000000e-02;}
	.st2{opacity:0.25;fill:#FFFFFF;}
	.st3{fill:#86C7F7;}
	.st4{fill:#002342;stroke:#002342;stroke-width:2;stroke-miterlimit:10;}
	.st5{fill:#002342;}
</style>
<g id="Camada_1_00000051346220602954341790000015562722552995191483_">
	<path class="st0" d="M2428.9,1232.5c0,624.7-478.7,1137.5-1089.3,1191.7c-35.3,3.1-71.1,4.7-107.2,4.7c-37.3,0-74.3-1.7-110.8-5.1
		C512.8,2367.9,36,1855.9,36,1232.5c0-641,504.1-1164.2,1137.4-1195c19.6-1,39.2-1.4,59-1.4c18.7,0,37.4,0.4,55.9,1.3
		C1923.2,66.5,2428.9,590.4,2428.9,1232.5z"/>
	<g>
		<path class="st1" d="M2428.9,1234.2c0,624.6-478.7,1137.5-1089.3,1191.7c500.5-161.6,862.6-631.4,862.6-1185.7
			c0-573.1-387-1055.8-913.9-1201.1C1923.2,68.2,2428.9,592.2,2428.9,1234.2z"/>
		<path class="st2" d="M1121.7,2425.6C512.8,2369.7,36,1857.6,36,1234.2C36,593.2,540.1,70,1173.5,39.2
			c-526.6,145.5-913.3,628.1-913.3,1201C260.1,1794.1,621.7,2263.6,1121.7,2425.6z"/>
	</g>
	<g>
		<path class="st3" d="M1886.2,644.6l-350.5,195.2l-113.8,178.2C1421.9,1018.1,1789.8,759.9,1886.2,644.6z"/>
		<path class="st3" d="M1725.8,384l-219.5,335.8l-36.3,208.2c0,0,224.5-323.9,289.3-501C1771.2,394.3,1720.8,407,1725.8,384z"/>
		<g id="MuLlhp.tif">
			<g>
				<path class="st3" d="M1605.7,1393.7c0.1-1.9,0.3-3.7,0.3-5.6c0-167.9-239.4-304-534.8-304c-200,0-374.2,62.4-466,154.8
					c17.9-24.1,36.1-48,57.3-68.8c31.8-31.4,69.3-57.8,111.5-75.6c26.5-11.2,52-25.3,79.3-33.6c42.1-12.9,84.7-24.9,129.4-26.5
					c25.4-0.9,50.8-3.1,76.2-5.1c6-5.6,14.3-9.1,24.9-9.1c0.3,0,0.6,0,1,0c2.1-0.9,4.4-1.7,6.8-2.2c24.4-10,48.5-21.4,73.9-27.7
					c1.9-0.5,3.8-0.8,5.7-1.2c1.3-8.1,4.8-15.7,10.6-21.4c-19.3-0.7-38.6,1.7-57.9,1.7c-16.8,0-33.6-3.3-50.2-2.3
					c-29.6,1.8-59.1,5.4-88.6,8.8c-81,9.2-158.6,30.2-231.3,67.5c-46.6,23.9-87.1,56.3-120.6,96.3c-27.9,33.2-45.1,72.7-57.6,114.1
					c-2.2,7.2-1.7,15.2-1.9,23.1c-23.9,34.5-37.2,72-37.2,111.3c0,167.9,239.4,304,534.8,304c210.1,0,391.9-68.9,479.3-169.1
					c-3.7,29.7-7.5,59.3-11.1,89c-6.3,52.3-11.5,104.8-19,157c-4.4,30.4-5.6,60.7-24.7,89c-25.5,37.9-52.1,74.3-84.3,106.5
					c-48.3,48.1-104.8,83.7-167.6,109.9c-36.4,15.2-73.6,27.1-112.8,33.1c-15.7,2.4-30.8,8.6-46.2,13c-6.3,5.7-12.7,11.3-19,17
					c7,4.5,12.1,5.7,17.2,5.2c18.6-1.9,37.3-3.6,55.7-6.7c64.5-11.1,126.8-30.4,185.8-58.5c65.4-31.2,124.4-72.4,168.2-131.4
					c15.2-20.5,38.6-37.9,36.5-68.2c-0.1-1.7,1.6-4.6,3.1-5.2c20.6-8,18-29.6,20.8-43.9c10.5-55.2,16.3-111.2,23.9-167
					c9.2-66.9,18.6-133.9,27.8-200.8c4-28.8,7.7-57.6,11.2-83.9C1612.6,1382.4,1609.1,1388.1,1605.7,1393.7z"/>
				<path class="st4" d="M1349.3,1008.4c0-10.2,3.6-20.4,10.7-27.7c-22.6-10.8-17-1.8-40.5-10.3c2.1,9.7-27.8,1.5-32.4,10.1
					C1308.6,988.5,1329.2,998,1349.3,1008.4z"/>
				<path class="st4" d="M1558.8,1183.5c-11.4-28.2-24.8-54.7-43.7-77.7c-18.2-22.2-38.3-43.3-60.4-61.6
					c-10.7-8.9-21.6-17.7-32.8-26.2c-2.1,9.4-7.3,18-15.8,23.2c45.6,30.5,83.1,69.7,111.5,117.4c21.6,36.2,34,76.7,35.3,118.4
					c0.7,23.4-6.4,48.9-16.4,70.4c-17,36.4-35.8,73-60,104.9c-23.5,30.9-52.9,57.9-88,77c-19.2,10.5-37,24.1-56.9,32.8
					c-28.9,12.6-59.1,22.4-88.9,32.7c-46.1,15.9-94.2,22-142.1,30.3c-39.8,6.9-79.6,7.6-118.5,4.2c-55.1-4.8-109.6-17.7-164.2-28.2
					c-42.3-8.2-81.2-26.2-118.5-47.1c-53.8-30.2-101.7-67.5-132.9-122.3c-14-24.5-28.6-49.1-38.4-75.4c-11-29.3-10.4-61-1.9-91.1
					c8-28.4,17.5-56.6,29.1-83.7c7.1-16.5,17.8-32.2,29.7-45.8c31.5-36,65.6-69.7,106.8-94.5c27.9-16.8,57.7-30.6,86.4-46
					c44.1-23.6,92.6-33.7,140.6-44c31.9-6.9,65.1-8.1,104.9-12.7c32.2,1.6,71.5,2.1,110.5,5.8c26.2,2.5,52,7.3,77.4,13.6
					c0.4,0,0.8,0.1,1.3,0.2c1.7-0.2,3.4-0.4,5.2-0.4c0.1,0,0.3,0,0.4,0c0.7-9.2,4.1-18.2,10.6-24.7c-15.4-3.8-30.9-6.9-46.8-9.4
					c-60.7-9.5-120.9-14.8-182.3-9.5c-43.6,3.8-86.4,9.7-129.3,19.2c-66.3,14.8-126.9,41.8-183.8,77.2
					c-29.7,18.5-57.6,40.5-83.3,64.2c-21,19.4-39.5,42.3-55.5,66.1c-14.4,21.4-26.6,45.3-35,69.7c-9.4,27.3-16.1,56.2-19,84.9
					c-2.8,28,0.4,56.6,1.5,85c2.3,58.6,5,117.2,7.7,175.8c2.7,60.4,4.8,120.9,8.9,181.3c2,29.9,5.2,60.4,13,89.1
					c9.1,33.5,26.5,63.5,47.1,92.4c20.1,28.3,41.9,54,68.7,75.7c15.5,12.5,31.6,24.5,48,35.8c18.6,12.8,37.1,26.1,57.2,36.3
					c19.7,10,40.9,17.7,62.1,24.2c27.8,8.6,56,16.5,84.5,22c26.4,5.2,53.4,8.1,80.2,9.7c20.6,1.2,41.5-1.6,62.3-2.2
					c16.5-0.4,33-0.1,49.4-0.2c15.4-4.4,30.5-10.6,46.2-13c39.2-6,76.4-17.9,112.8-33.1c62.8-26.2,119.3-61.8,167.6-109.9
					c32.3-32.2,58.8-68.6,84.3-106.5c19.1-28.3,20.3-58.6,24.7-89c7.5-52.2,12.7-104.7,19-157c5.4-44.5,11-88.9,16.7-133.3
					c0.3-2.4,1.5-4.6,2.3-6.9c3.5-31.2,6.9-62.4,10.6-93.6c3.6-29.8,9.2-59.4,10.9-89.3C1581.8,1252.3,1572.7,1217.9,1558.8,1183.5z
					 M1521.8,1513.9c-3.5,31.2-6.9,62.4-10.6,93.6c-7.1,60.2-15,120.3-21.3,180.6c-2.8,26.4-12,48.8-29,69.2
					c-20.4,24.6-36.9,52.7-59.1,75.4c-23.3,23.9-51,43.6-77.2,64.4c-48.2,38.2-105.3,57.2-163.1,74.5c-10.4,3.1-20.9,6-31.4,9
					c-22.8,3.4-45.6,8-68.6,9.9c-28.6,2.4-57.4,3-86.2,3.6c-47.1,1-92.6-9.7-137.2-23.1c-28.7-8.6-57.3-18.9-83.8-32.5
					c-36.6-18.8-70.8-41.6-101.7-69.9c-32.9-30.1-60.6-63.8-81.2-102.7c-18.4-34.7-28.9-72.5-30.6-112.5
					c-2.4-56.6-6.3-113.1-9-169.6c-2.3-47-3.8-94.1-5.6-141.2c-0.1-2.9-0.8-5.7,1.9-11c4.1,4.2,9.1,7.8,12.1,12.7
					c25.2,41.1,56.9,76.3,97.7,101.9c35.1,22.1,70.8,44.1,108.7,60.5c48.8,21,100.3,34.9,153.7,40.4c35.3,3.7,70.3,9.8,105.7,11.8
					c23.2,1.3,46.8-1.9,70.1-4.3c26.7-2.8,53.3-6.3,79.7-11c27.1-4.8,54-11.2,80.8-17.2c50.5-11.4,97.2-32.9,142.2-57.5
					c37.6-20.5,72-46.5,100.6-78.9c16.8-19.1,31.7-39.9,47.7-59.7c1.5-1.8,4.1-2.7,7.9-5C1530.2,1456.1,1526,1485,1521.8,1513.9z"/>
				<path class="st3" d="M1130,2080.5c7.6-18.7,15.8-37.2,22.7-56.1c13.5-37,13.2-75.5,4.8-112.8c-8.2-36.3-19.3-72.5-34.2-106.5
					c-15.6-35.7-37.2-68.8-56.2-103c-1.7-3.1-3.6-6.2-6.5-11c14.9-3,28.1-5.9,41.5-8.3c35.3-6.2,70.5-12.9,105.9-18.1
					c40.6-6,78.3-21.1,116.7-34.3c9.3-3.2,19.8-2.8,28.9-6.2c8.9-3.4,16.9-9.4,25.2-14.5c34.8-21.6,69.8-42.8,104.1-65.2
					c13.7-8.9,25.9-20.4,38.7-30.7c-3.5,31.2-6.9,62.4-10.6,93.6c-7.1,60.2-15,120.3-21.3,180.6c-2.8,26.4-12,48.8-29,69.2
					c-20.4,24.6-36.9,52.7-59.1,75.4c-23.3,23.9-51,43.6-77.2,64.4c-48.2,38.2-105.3,57.2-163.1,74.5
					C1151,2074.7,1140.5,2077.5,1130,2080.5z M1226.4,2006c25.7,0.7,47.6-19.4,44.8-42.3c-1.4-11.1-7.9-22-7.8-32.9
					c0.2-55.2,1.4-110.4,3.1-165.5c0.3-11,3.1-22.3,6.7-32.8c4.4-13,4.7-23.8-7.6-32.4c-12.6-8.8-28.2-7.7-38.6,4.7
					c-8.4,10-7.1,21.2,0.6,32c3.1,4.4,6.2,10.3,6.1,15.4c-1.7,58.8-3.9,117.6-6.1,176.4c-0.3,7.9-0.1,16.3-2.7,23.5
					C1218.3,1970.4,1213.2,1988.3,1226.4,2006z M1444,1797.6c1.9-4.6,4.9-8.8,5.3-13.2c2.9-29.3,4.2-58.9,8.2-88
					c3.5-25.8-2.7-53.2,18.4-76.3c12.8-14,3.3-31.6-14.4-34.7c-16.5-2.9-23.6,10-32,19.4c-18.2,20.4-16.6,27.6,6.8,40.8
					c-3.8,22.3-7.7,44.7-11.5,67.1c-6.2,36.6-12,73.3-18.6,109.9c-2.1,11.9,7.2,28.1,17.8,28.4c10.2,0.3,30.4-18.1,35.4-30.7
					C1465.7,1804.8,1451.9,1803.5,1444,1797.6z"/>
				<path class="st4" d="M1058.9,1029.2c-25.4,2-50.8,4.2-76.2,5.1c-44.7,1.6-87.3,13.7-129.4,26.5c-27.3,8.3-52.8,22.4-79.3,33.6
					c-42.2,17.9-79.8,44.3-111.5,75.6c-33.5,33.1-59.7,73.7-89.1,111c-7.6,16.8-15.8,33.4-22.6,50.5c-4,10-1.3,19.1,9.5,24.2
					c5.8-4.5,14.6-7.8,17-13.6c21.9-53.4,51.6-102.3,93.6-141.4c29.2-27.2,63.6-49.2,97-71.5c19.3-12.9,40.7-23.1,62.3-31.8
					c21.2-8.6,43.5-15.1,65.8-20.3c26.6-6.1,53.6-10.8,80.6-14.2c23.1-3,46.5-3.3,69.7-4.8c0.2,0,0.4,0,0.5,0
					C1047,1047.3,1051,1036.5,1058.9,1029.2z"/>
				<path class="st4" d="M1255.1,1068.1c-38.7-17.9-41-12.9-83.6-17.3c4.9,9.1-32.7,4.9-35.3,15c27.9,4.8,55.7,10.1,82.7,18.2
					c23.4,7,45.8,18,68,28.9c0.1-9.3,3-18.5,8.9-25.5C1282.3,1080.8,1268.7,1074.4,1255.1,1068.1z"/>
				<path class="st4" d="M1510.8,1323.2c-14.6-29.2-28.5-58.8-43.9-87.5c-23-42.9-56.6-77.9-95.6-105.1c-3.9-2.7-7.8-5.3-11.8-7.9
					c-2,9-6.9,17.1-14.6,22.5c14.7,10.3,28.4,22,41.4,34.4c28.7,27.5,55.2,57,71.1,94.5c8.4,19.9,20.6,38.2,28.2,58.3
					c4.2,11.2,10.4,16,19.7,12.5C1514.7,1341.4,1515.3,1332.1,1510.8,1323.2z"/>
				<path class="st3" d="M560.3,1355.8c5.8-4.5,14.6-7.8,17-13.6c21.9-53.4,51.6-102.3,93.6-141.4c29.2-27.2,63.6-49.2,97-71.5
					c19.3-12.9,40.7-23.1,62.3-31.8c21.2-8.6,43.5-15.1,65.8-20.3c26.6-6.1,53.6-10.8,80.6-14.2c23.1-3,46.5-3.3,69.7-4.8
					c-8.3,20.3-22.2,27.9-45.3,29.4c-98.7,6.6-187.2,41.5-264.9,103.2c-42.1,33.4-81,70.5-112.4,113.9
					c-23,31.9-40.2,67.9-61.3,104.2C561.8,1390.6,561.1,1373.2,560.3,1355.8z"/>
				<path class="st4" d="M888.8,1914.4c4.2-44.7,8.6-89.4,12.5-134.2c0.5-6.2,0.6-14.1-2.7-18.7c-12.2-17.2-8.5-35.6,10-43
					c18.2-7.2,36.6,2.6,41.4,22.1c3.2,13-6.2,19.3-13.5,27.2c-3.1,3.3-6.5,7.9-6.8,12.1c-2.7,33.7-5.7,67.5-6.5,101.3
					c-1,37.8,0,75.7,0.7,113.5c0.1,4.2,3.3,8.5,5.6,12.5c8.4,14.4,2,25-9.6,32.7c-11.4,7.6-22.6,0-29.7-7.2c-8.3-8.3-12-20.3-2.5-32
					c2.2-2.8,2.9-7.4,3-11.2c0.3-25,0.1-49.9,0.1-74.9C890.2,1914.5,889.5,1914.5,888.8,1914.4z"/>
				<path class="st4" d="M631.1,1874.6c2.2-36,4.8-72,6.5-108c1.4-30.8,2.2-61.7,2.3-92.6c0-5-7.4-9.9-7.7-15.1
					c-0.8-13.9,8.6-23.1,20.2-27c8.3-2.8,21.1-3.3,27,1.4c6.4,5.1,10.4,17.7,9.3,26.2c-0.8,6.2-11.7,11-17.7,16.9
					c-3.8,3.7-9.7,8-9.8,12.1c-0.7,45.9-0.4,91.8-0.7,137.6c-0.1,10.2-2.8,20.4-2.5,30.5c0.3,9.1,3.3,18.1,4.5,27.2
					c0.9,6.7,2.7,14.3,0.5,20.1c-1.2,3.2-11,6.5-14.7,4.8c-6.4-3-12.8-8.9-16-15.1c-2.6-5.1-0.5-12.6-0.5-19.1
					C631.6,1874.6,631.4,1874.6,631.1,1874.6z"/>
				<path class="st4" d="M1226.4,2006c-13.3-17.7-8.1-35.6-1.5-54c2.6-7.3,2.4-15.6,2.7-23.5c2.2-58.8,4.5-117.6,6.1-176.4
					c0.1-5.1-3-10.9-6.1-15.4c-7.7-10.8-9-21.9-0.6-32c10.4-12.4,26-13.5,38.6-4.7c12.3,8.6,12,19.5,7.6,32.4
					c-3.6,10.5-6.3,21.8-6.7,32.8c-1.7,55.2-2.9,110.4-3.1,165.5c0,11,6.4,21.8,7.8,32.9C1274.1,1986.5,1252.1,2006.7,1226.4,2006z"
					/>
				<path class="st4" d="M1444,1797.6c7.9,5.9,21.7,7.2,15.6,22.7c-5,12.5-25.2,31-35.4,30.7c-10.7-0.3-20-16.5-17.8-28.4
					c6.6-36.6,12.4-73.3,18.6-109.9c3.8-22.4,7.7-44.8,11.5-67.1c-23.4-13.2-25-20.4-6.8-40.8c8.3-9.3,15.5-22.2,32-19.4
					c17.7,3.1,27.2,20.7,14.4,34.7c-21.1,23.1-14.9,50.5-18.4,76.3c-4,29.2-5.3,58.7-8.2,88C1448.9,1788.8,1445.9,1793,1444,1797.6z
					"/>
			</g>
		</g>
		<g id="OgtoUk_00000176043324885373454100000005841367795258374831_">
			<g>
				<path class="st5" d="M1624.4,697.5c1.8-1,3.6-2.1,5.5-3.1c80.6-46.6,161.3-93.3,241.9-139.9c20.9-12,45.9-8.2,61.5,9.1
					c20.9,23.4,14.9,59.2-12.8,75.3c-39.6,23-79.4,45.9-119,68.9c-91.2,52.8-182.5,105.5-273.6,158.4c-2.4,1.4-5,3.3-6.4,5.7
					c-54.7,95.5-116,186.9-174.3,280.1c-14.1,22.5-28.4,44.7-42.4,67.2c-1.7,2.7-2.7,6.4-2.6,9.6c0.3,28-18.4,53.7-44.3,60.4
					c-27.3,7-53.7-11.3-56.7-39.3c-2.7-25.3,10.8-50,33.5-61.7c2.1-1.1,4.2-3,5.3-5c39.2-72.7,78.3-145.4,117.3-218.1
					c0.6-1.1,1.1-2.2,2.1-4.3c-2.4,1.1-3.8,1.7-5.1,2.5c-72.1,38.3-144.2,76.6-216.2,115.1c-2.8,1.5-5.5,4.2-7,7
					c-12.2,22.8-39.7,36.3-64.7,31.4c-30.4-6-46.2-37.1-32.5-65c11.5-23.3,31-34.5,56.9-35.2c3.6-0.1,7.6-1.1,10.6-3
					c87.4-54.6,174.5-109.6,262-164.1c27.4-17.1,55.8-32.7,83.5-49.2c3.1-1.8,6.1-4.8,7.9-7.9c76.1-129.9,152.1-259.8,228.1-389.8
					c12.3-21,33.8-30.5,55.7-24.7c31.4,8.3,46.1,43.7,29.8,71.7c-47.2,80.9-94.6,161.8-141.9,242.7c-0.9,1.5-1.7,3-2.6,4.5
					C1624,697,1624.2,697.3,1624.4,697.5z M1229.6,1242.9c0,13.4,9.7,21.5,21.7,18.2c14.8-4,25.6-23.5,20.6-38
					c-1.1-3.2-0.6-5.3,1.1-8c21.3-33.4,42.6-66.9,63.7-100.4c41.8-66.1,84.9-131.4,124.9-198.6c82.9-139.4,164.2-279.9,246.1-419.9
					c11.8-20.2,23.6-40.4,35.4-60.6c4.4-7.5,4.3-15.1-0.7-22.2c-4.9-6.9-11.9-9.5-20.2-7.9c-7,1.3-11.3,6.1-14.7,12
					c-62.3,106.6-124.3,213.4-187.2,319.8c-65.2,110.3-128.6,221.5-188.1,334.9c-23.7,45.1-48.2,89.8-72.4,134.7
					c-1.1,2-3.1,4.3-5.1,4.8C1240.3,1215,1229.6,1228.1,1229.6,1242.9z M1552.8,818c3-1.6,4.8-2.4,6.4-3.4
					c21.5-12.4,43-24.9,64.5-37.3c93.9-54.3,187.8-108.7,281.7-163c11-6.4,14.5-17.9,8.8-28c-5.7-10-17.7-12.8-28.6-6.5
					c-96.3,55.7-192.6,111.4-288.8,167.2c-2.2,1.3-4.3,3.4-5.6,5.6c-9.9,16.6-19.6,33.4-29.4,50.1
					C1559.1,807.3,1556.3,812,1552.8,818z M1421.8,848.2c-2.9,1.6-4.7,2.5-6.3,3.6c-36.9,22.7-73.8,45.3-110.5,68.2
					c-66.9,41.8-133.7,83.9-200.6,125.7c-1.8,1.1-4.8,1.6-6.8,1c-14.8-4.7-33.4,4.5-38.5,19.2c-3.6,10.5,1.3,19.6,12,22.4
					c14.5,3.7,33.2-7.4,36.2-22c0.9-4.2,2.9-6.1,6.3-7.9c88.7-47.1,177.4-94.2,266.1-141.4c2-1.1,4.4-2.3,5.5-4.2
					C1397.3,891.7,1409.2,870.5,1421.8,848.2z"/>
			</g>
		</g>
	</g>
</g>
</svg>
