<?xml version="1.0" encoding="utf-8"?>
<!-- Generator: Adobe Illustrator 27.4.1, SVG Export Plug-In . SVG Version: 6.00 Build 0)  -->
<svg version="1.1" id="Layer_2" xmlns="http://www.w3.org/2000/svg" xmlns:xlink="http://www.w3.org/1999/xlink" x="0px" y="0px"
	 viewBox="0 0 2464.9 2464.9" style="enable-background:new 0 0 2464.9 2464.9;" xml:space="preserve">
<style type="text/css">
	.st0{fill:#CBE5F4;}
	.st1{opacity:5.000000e-02;}
	.st2{opacity:0.25;fill:#FFFFFF;}
	.st3{fill:#002342;}
	.st4{fill:#86C7F7;}
</style>
<g id="Camada_1_00000051346220602954341790000015562722552995191483_">
	<path class="st0" d="M2428.9,1232.5c0,624.7-478.7,1137.5-1089.3,1191.7c-35.3,3.1-71.1,4.7-107.2,4.7c-37.3,0-74.3-1.7-110.8-5.1
		C512.8,2367.9,36,1855.9,36,1232.5c0-641,504.1-1164.2,1137.4-1195c19.6-1,39.2-1.4,59-1.4c18.7,0,37.4,0.4,55.9,1.3
		C1923.2,66.5,2428.9,590.4,2428.9,1232.5z"/>
	<g>
		<path class="st1" d="M2428.9,1234.2c0,624.6-478.7,1137.5-1089.3,1191.7c500.5-161.6,862.6-631.4,862.6-1185.7
			c0-573.1-387-1055.8-913.9-1201.1C1923.2,68.2,2428.9,592.2,2428.9,1234.2z"/>
		<path class="st2" d="M1121.7,2425.6C512.8,2369.7,36,1857.6,36,1234.2C36,593.2,540.1,70,1173.5,39.2
			c-526.6,145.5-913.3,628.1-913.3,1201C260.1,1794.1,621.7,2263.6,1121.7,2425.6z"/>
	</g>
	<g id="_x36_R1eOE.tif">
		<g>
			<path class="st3" d="M1099,2078.6c-4.1,1.3-8.3,2.6-12.4,3.9c-1,0.3-2.1,0.7-3.1,1c-4.5,0.3-8.9,0.5-13.4,0.8
				c-2.1,0.6-4.1,1.3-6.2,1.9c-3.1,1-6.2,2-9.3,2.9c-1.1,0-2.2,0.1-3.3,0.1c-8.9,0.9-17.7,1.8-26.6,2.6c-8.3-1.2-16.6-2.4-24.9-3.6
				c-2.4-0.4-4.8-0.8-7.2-1.2c-22.8-4.5-45.8-8.2-68.4-13.9c-14.8-3.7-28.8-10.4-43.2-15.7c-7.9-3.3-15.9-6.6-23.8-9.8
				c-7-4.5-14.1-9.1-21.1-13.6c-20.3-12.6-40.8-25.1-61-37.9c-16.9-10.8-33.5-22.1-50.2-33.1c-6.1-5-12.1-9.9-18.2-14.9
				c-10.2-10.4-20.5-20.8-30.7-31.2c-1.7-1.8-3.4-3.5-5.1-5.3c-2.8-1.5-5.6-3-8.3-4.5c-0.3-1-0.8-1.9-1.6-2.6
				c-1.7-2.9-3.4-5.9-5.1-8.8c-6.4-8.2-12.7-16.5-19.1-24.7c-1.1-0.9-2.2-1.8-3.4-2.7c0,0,0.2,0.1,0.2,0.1
				c-2.7-4.8-5.4-9.6-8.1-14.4c-6.2-11.7-12.5-23.4-18.7-35.1c-5.6-17.6-11.1-35.3-16.7-52.9c-0.6-3.2-1.2-6.3-1.7-9.5
				c0-2.4,0-4.7,0-7.1c-1.3-8.6-2.5-17.3-3.8-25.9c4-19.3,7.6-38.8,12.2-58c15.1-64.2,53.6-114.6,100.4-157.8
				c31-28.6,58.7-56.5,64.8-100.6c1.5-11.1,9-21.5,13.8-32.2c12.1-2.6,21.1,0.7,27.5,12.1c2.6,4.5,8.4,7.2,12.8,10.7
				c0.9,1,1.7,2,2.6,3c0.2,0.6,0.7,0.9,1.3,0.9c37.8,35.3,85.7,27.8,111.4,6.4c27-22.6,51.8-48.5,66.6-81.8
				c10.6-23.9,23.5-47.4,4.9-73.2c-5.6-4-11.1-8-16.7-12c-8.3-7.6-16.5-15.2-24.8-22.8c0.4-0.9,0.4-1.8-0.1-2.7
				c4.7-9.9,9.4-19.8,14.1-29.8c7.2-6.7,15.3-12.7,21.5-20.3c8.4-10.2,17.9-20.7,22.6-32.7c13-33,20.7-67.6,42.9-97.3
				c19.8-26.6,39.1-52.6,65.1-73.8c49.8-40.6,106.3-55.8,169.2-47.2c22.6,3.1,44.6,10.5,66.9,15.9c1.9-0.3,3.7-0.6,5.6-0.9
				c19.7,14.8,24.5,13.1,37.1-7.3c14.1-22.9,30.5-44.4,45.4-66.8c21-31.5,40.9-63.7,62.4-94.7c26.4-38,54.6-74.8,81.1-112.8
				c12.3-17.6,22.3-36.7,35.6-58.7c-9.3-3.7-19.7-7.8-30.1-11.9c-8.6-2.4-17.2-4.8-25.7-7.2c-3.2-12.7-6.4-25.3-9.5-38
				c5.1-6.3,10.2-12.7,15.2-19c2.1-0.7,4.2-1.3,6.2-2c16.6-3.8,28.3,4.7,38.9,15.8c1.8,5,3.7,9.9,5.5,14.9
				c6.5,5.5,13.1,10.9,20.9,17.4c12-16.8,22.3-31.2,33.5-46.9c-10.8-5.3-18.9-9.3-27-13.3c-0.9-0.6-1.8-1.7-2.6-1.6
				c-14.4,2.2-28.8,4.2-36.4-12.6c-9.8-21.5-8.1-28.6,9.6-45.3c5.2-1.7,10.3-3.4,15.5-5.1c18.6-2.3,28.1,10.4,37.6,23.1
				c-0.1,2.4-0.2,4.8-0.2,7.2c4.4,2.9,9.3,5.3,13.1,8.8c9.4,8.6,16.2,4.9,19.3-5.1c5.9-18.7,12.2-37.5,15.2-56.8
				c4.5-28.1,17.8-49.8,39.9-48.9c21.6,0.8,37.2-12,56.2-15.9c0.9,0.1,1.8,0.1,2.7-0.2c1.4,0.5,2.8,0.9,4.2,1.4
				c13.2,8.6,26.3,17.2,39.5,25.8c2,7.3,4,14.6,6,22c-1.5,11.4-8.8,23.5,4.4,32.9c1,3.1,2,6.2,2.9,9.3c-0.4,2.2-0.8,4.5-1.2,6.7
				c0.7,3.3,1.5,6.7,2.2,10c-7.7,11.5-15.4,23-23.2,34.5c-13.4,6.1-27.7,11.3-32.6,27.4c-3.7,2.5-7.3,5-11,7.6
				c-6.1,6.4-12.2,12.9-18.7,19.8c10.8,5,20,9.2,29.1,13.4c9.8,2.9,19.7,5.7,29.5,8.6c2.9,1.4,5.7,2.8,8.6,4.3
				c8.7,12.5,7.5,35.5-2.4,46.6c-8.5,9.6-33.6,11.1-47.4,2.9c-5.5-20.2-20.3-32.4-36.3-41.9c-6.1,9.2-12.6,18.8-19,28.4
				c-1.4,2.7-2.9,5.5-4.3,8.2c-0.1,3.9-1.9,9.3-0.1,11.3c7.4,7.7,14.5,18,27.9,11.2c11.1,5.5,22.2,11,33.2,16.6
				c1.7,6.3,3.4,12.6,5.1,18.8c-5.1,8.8-10.2,17.6-15.3,26.4c-7.3,2.2-14.6,4.4-21.9,6.5c-5.4-1.9-10.9-3.8-16.3-5.8
				c-4.4-7.7-7.6-16.5-13.6-22.7c-6.5-6.8-15.1-11.9-23.8-15.8c-1.6-0.7-7.4,8.1-11.3,12.5c0,0,0.1-0.1,0.1-0.1
				c-2.5,3.1-4.9,6.3-7.4,9.4c-2.1,4-4.2,8-6.4,12c-5.3,8.6-10.7,17.2-16,25.8c-1.4,2.6-2.7,5.3-4.1,7.9c-2.5,3.2-5,6.3-7.4,9.5
				c-2.1,4-4.2,8-6.3,12c-4.2,4.8-8.5,9.7-12.7,14.5c-7.1,13.5-14.1,27.1-21.2,40.6c-4.2,4.8-8.5,9.7-12.7,14.5
				c-1.4,2.6-2.8,5.3-4.2,7.9c-1.2,3.9-2.4,7.7-3.6,11.6c-4.5,7.1-9,14.1-13.4,21.2c-4.2,4.8-8.5,9.7-12.7,14.5c-2.1,4-4.2,8-6.3,12
				c-2.1,4.2-4.2,8.4-6.4,12.6c-2.9,5.4-5.7,10.7-8.6,16.1c-4.2,4.8-8.5,9.7-12.7,14.5c-7.1,13.5-14.1,27.1-21.2,40.6
				c-4.2,4.8-8.5,9.7-12.7,14.5c-4.5,7.1-9,14.2-13.6,21.3c-2.2,3.6-4.5,7.1-6.7,10.6c4.8,4.3,9,8,13.2,11.7
				c10.9,12.5,21.7,25,32.6,37.5c4.1,5.6,8.2,11.2,12.2,16.8c1.9,2.8,3.9,5.6,5.8,8.3c1.7,1.8,3.4,3.5,5,5.3
				c2.9,4.7,5.9,9.5,8.8,14.2c1.3,4.2,2.6,8.3,3.9,12.5c4.6,14.5,9.1,29,13.7,43.6c1,3.1,2,6.2,2.9,9.3c-0.1,3.5-0.2,6.9-0.3,10.4
				c-0.2,3.5-0.5,7-0.7,10.4c0.2,4.5,0.4,9,0.6,13.4c-0.5,5.8-1,11.7-1.5,17.5c-4.4,21.8-8.8,43.7-13.1,65.5
				c-2.6,5.5-5.2,11-7.8,16.5c-6.6,12.2-13.2,24.5-19.9,36.7c-3.7,6.9-7.3,13.8-11,20.7c-10.6,12.7-21.3,25.4-31.9,38.2
				c-2.9,1.7-5.8,3.5-8.8,5.2c-3.7,2.7-7.3,5.4-11,8.1c-4.1,4.4-8.2,8.9-12.3,13.3c-8.8,14.2-17.8,28.2-26.2,42.6
				c-1.7,2.9-1.6,6.9-2.3,10.3c-1.1,3.9-2.2,7.8-3.3,11.7c-1.4,2.6-2.7,5.3-4.1,7.9c-1.8,1.7-3.5,3.4-5.3,5
				c-10.7,8.8-20.7,19.6-36.7,11.8c-10.6-7.8-21.2-15.6-31.8-23.5c-4.8-0.8-9.6-1.6-14.4-2.3c-2.1,0.7-4.2,1.3-6.2,2
				c-6.6,4.4-13.2,8.7-19.8,13.1c-2.6,2.9-5.3,5.7-7.9,8.6c-2.6,2.2-5.2,4.5-7.8,6.7c-3,5.2-6,10.5-9,15.7
				c-9.2,14.2-18.3,28.4-27.5,42.6c-3.3,7.9-6.6,15.9-9.9,23.8c-1.8,5.1-3.6,10.3-5.5,15.4c-1.1,7.2-2.1,14.5-3.2,21.7
				c4.1,15.8,8.2,31.6,12.4,47.4c9.2,16,21.2,28.4,40.2,32.2c12.2,6.3,24.4,12.7,36.6,19c1.3,4.1,2.5,8.2,3.8,12.3
				c-2,4.3-3.9,8.5-5.9,12.8c-4.7,3.5-9.4,7.1-14.1,10.6c-15.7,15.1-31.4,30.2-47.1,45.3c-2.6,10-5.3,20-7.9,30.1
				c-4.3,11.5-8.5,23-12.8,34.5c-3.3,6.9-6.6,13.8-9.9,20.7c-7,14.6-14,29.2-21,43.9c-4.6,7.2-9.3,14.5-13.9,21.7
				c-15.9,17.8-31.8,35.6-47.8,53.4c-3.7,3.2-7.4,6.4-11,9.6c-13,8.9-26,17.8-39.1,26.7c-5,2.4-10,4.8-15,7.2
				C1109.1,2074.8,1104,2076.7,1099,2078.6z M1559.3,1173.3c-1-6.7-1.5-13.6-3.2-20.2c-11.2-44.4-43.2-74.3-74.8-103.8
				c-24.3-22.6-25.5-22.3-10.9-49.5c6.2-9.5,12.7-18.9,18.6-28.5c13.2-21.6,26.2-43.3,39.2-65c6.7-11.1,12.9-22.6,20-33.4
				c3.6-5.5,9.4-9.7,12.8-15.3c7.1-11.7,12.5-24.5,19.9-36c19-29.7,39.2-58.6,57.9-88.4c15.6-24.7,29.3-50.6,44.7-75.5
				c18.2-29.5,37.2-58.4,56-87.6c7.2-11.1,15-21.8,22-33.1c11.1-17.9,14.7-41.1,39.2-49c6.3-2.1,10.4-11.1,15.6-16.8
				c3.6-3.9,6.8-9.1,11.3-11.2c19.2-8.6,19.6-9.2,7.7-26.7c-1.8-2.6-2.5-6-3.7-9c2-9.8,4.1-19.5,7.3-34.9c-9.4,2.2-15.7,3.5-22,5.2
				c-10.4,2.8-20.9,5.4-31.1,8.8c-5.3,1.8-13.2,4.3-14.5,8.2c-7.5,23.2-9.9,48.8-20.7,70.1c-15,29.7-35.6,56.6-54.4,84.3
				c-22.6,33.3-46,66-68.7,99.3c-20.1,29.5-39.4,59.5-59.3,89.1c-29.2,43.5-58.5,86.9-88.1,130.1c-20.9,30.5-42.8,60.3-63.3,91.1
				c-7.3,11-15,14.2-26.9,9.6c-24.5-9.4-48.4-21.8-73.7-27.3c-38.8-8.4-78.7-13.2-117,4c-8.6,3.9-16.8,9.6-24,15.8
				c-21.4,18.3-42.5,37-63.1,56.1c-5.1,4.7-8.7,11.3-12.2,17.5c-11.1,19-22.8,37.8-32.4,57.6c-9.3,19.3-14.7,40.7-24.7,59.6
				c-7.7,14.5-20,26.6-30.2,39.8c37.2,26,51.7,72.9,32.2,114.5c-12,25.6-27.8,50-45.1,72.4c-29.6,38.3-68.5,63.6-117.7,67.8
				c-30.8,2.7-61.8,1.6-85.1-27.1c-4.5,12.2-6.3,25.3-13.2,34.5c-15,19.9-32.5,37.9-49.4,56.4c-22.3,24.3-46.1,46.3-64.5,74.9
				c-19.3,30-36.2,60.6-40.9,94.6c-6.4,46,4,90.3,28.4,131.7c24,40.6,55.7,72.7,93.3,99.8c10.6,8.1,21.6,15.6,31.6,24.3
				c33.4,29,72.3,49.7,112.4,66.3c35.6,14.6,73.7,29.2,111.3,31.1c59.4,3.1,114.2-13.5,157.6-61.3c27.5-30.3,47.2-63.8,63.9-100.1
				c3.4-7.3,7.4-14.4,9.3-22.1c7.5-30.4,16.6-60.1,38.2-83.9c6.6-7.2,14.6-13.1,22.9-20.4c-11.3-6.5-21-12.1-30.7-17.7
				c-35.1-27.9-42.8-67.1-44.5-108.7c1-1.2,2.5-2.2,3-3.6c12.7-38.7,19.4-80.2,50-110.9c0.7-0.7,0.8-2,1.5-2.9
				c18.2-22.3,34.1-47.5,65.5-54c14-2.9,27.7-6.6,41.6-10c2.4,0.6,4.8,1.2,7.2,1.7c16.9,19.4,27.3,18,36.5-4.2
				c12.4-29.9,34.4-52.8,58.2-73.3c26.5-22.8,45.4-51,58.5-82c10.8-25.7,15.7-54.3,20.1-82.2
				C1566.8,1201.2,1561.4,1187,1559.3,1173.3z"/>
			<path class="st4" d="M1363.4,930.4c-22.3-5.4-44.3-12.8-66.9-15.9c-62.8-8.6-119.4,6.5-169.2,47.2c-26,21.2-45.3,47.2-65.1,73.8
				c-22.2,29.7-30,64.3-42.9,97.3c-4.7,12-14.2,22.5-22.6,32.7c-6.2,7.5-14.3,13.6-21.5,20.3c-6.3-4.6-12.5-9.2-21.7-15.9
				c6.7-8.7,14.1-18.5,21.6-28.3c1.8-1.5,3.7-3.1,5.5-4.6c12.2-18.9,24.5-37.8,36.7-56.7c0.8-3.5,1.5-6.9,2.3-10.4
				c11.4-41.4,34.1-75.4,62-108.3c31-36.7,68.7-58.8,113.6-69.7c30.7-7.4,62.1-11,93.1,2.5c12.2,5.3,26.6,5.5,39,10.4
				c12.4,4.9,23.5,12.8,35.2,19.4C1362.7,926.4,1363,928.4,1363.4,930.4z"/>
			<path class="st4" d="M1600.3,577.3c10.4,4.1,20.8,8.2,30.1,11.9c-13.2,22-23.3,41.2-35.6,58.7c-26.5,38-54.6,74.8-81.1,112.8
				c-21.6,31-41.5,63.2-62.4,94.7c-14.9,22.4-31.2,43.9-45.4,66.8c-12.6,20.4-17.4,22.1-37.1,7.3c0.7-2.5,1.5-5,2.2-7.4
				c0,0-0.1,0.1-0.1,0.1c2.2-4.2,4.5-8.4,6.7-12.6c15.8-22.9,31.5-45.9,47.4-68.8c25.2-36.2,50.8-72.2,75.6-108.7
				c21.8-31.9,42.6-64.4,64.2-96.4c9.1-13.4,19.6-25.8,28.5-39.3C1597.2,590.9,1598.1,583.7,1600.3,577.3z"/>
			<path class="st4" d="M775.5,1375c-4.8,10.7-12.3,21-13.8,32.2c-6.1,44.1-33.8,72-64.8,100.6c-46.8,43.2-85.3,93.6-100.4,157.8
				c-4.5,19.2-8.1,38.7-12.2,58c-7.5-29-8-57.2-0.7-87.1c7.9-32.7,21.9-61.6,39.1-89.5c7.8-12.7,18-24.4,28.4-35.2
				c23.5-24.3,48.4-47.3,71.5-72c7.6-8.1,12.2-19.6,16.4-30.2c7-17.9,12.5-36.3,20.2-59.2C765.7,1360.2,770.6,1367.6,775.5,1375z"/>
			<path class="st4" d="M1002.6,1253.1c18.6,25.8,5.7,49.3-4.9,73.2c-14.8,33.4-39.5,59.2-66.6,81.8c-25.7,21.4-73.6,29-111.4-6.4
				c8.2,0.1,16.5,0.9,24.6,0c38.6-3.9,73.3-16.3,98.3-48.2c1.6-2.6,3.3-5.2,4.9-7.8c23.1-25.7,44.6-52.4,51.2-87.8
				C1000,1256.5,1001.3,1254.8,1002.6,1253.1z"/>
			<path class="st4" d="M1825.6,347c-19,3.8-34.6,16.7-56.2,15.9c-22.1-0.9-35.5,20.8-39.9,48.9c-3.1,19.3-9.3,38.1-15.2,56.8
				c-3.2,10-9.9,13.7-19.3,5.1c-3.9-3.5-8.7-5.9-13.1-8.8c1.3-2.8,2.6-5.5,3.9-8.3c22.7-24.6,30-55.6,35.5-87
				c3.7-21.5,16.4-31.7,37.7-29.7c7.4,0.7,16.1-3.2,22.9-7.2C1801.7,320.9,1816.5,325.3,1825.6,347z"/>
			<path class="st4" d="M1658.3,499.1c8.1,4,16.2,8,27,13.3c-11.2,15.7-21.5,30.1-33.5,46.9c-7.8-6.5-14.3-12-20.9-17.4
				c2.6-6.3,5.3-12.6,7.9-18.9C1645.3,515,1651.8,507,1658.3,499.1z"/>
			<path class="st4" d="M818.4,1400.8c-0.9-1-1.7-2-2.6-3C816.7,1398.8,817.6,1399.8,818.4,1400.8z"/>
			<path class="st4" d="M1222.8,1635.6c1.7,41.6,9.4,80.7,44.5,108.7c-21.3,21.3-29.5,49.2-38.9,76.7c-5.6,16.6-6.1,36.8-25,46.5
				c-17-14-34-28-51.1-42.1c-22.8-22.2-51.5-34.9-81.8-33c-45.3,2.9-82.2,26.5-110.3,62.5c-22.1,28.3-62.1,44-88.5,31
				c-36.9-18.1-87.3,5.1-107.5,26.9c-4.6,5-9.1,10.1-13.6,15.1c-37.6-27.2-69.3-59.2-93.3-99.8c-24.4-41.4-34.8-85.7-28.4-131.7
				c4.7-34,21.6-64.6,40.9-94.6c18.4-28.6,42.3-50.6,64.5-74.9c16.9-18.4,34.3-36.5,49.4-56.4c6.9-9.2,8.8-22.2,13.2-34.5
				c23.3,28.7,54.3,29.8,85.1,27.1c49.3-4.3,88.2-29.5,117.7-67.8c17.3-22.4,33.1-46.8,45.1-72.4c19.5-41.6,4.9-88.5-32.2-114.5
				c10.2-13.2,22.5-25.3,30.2-39.8c10-18.9,15.4-40.2,24.7-59.6c9.5-19.8,21.3-38.6,32.4-57.6c3.6-6.1,7.1-12.8,12.2-17.5
				c20.7-19.1,41.7-37.8,63.1-56.1c7.2-6.2,15.4-11.9,24-15.8c38.3-17.2,78.2-12.5,117-4c25.3,5.5,49.2,17.9,73.7,27.3
				c11.8,4.6,19.6,1.4,26.9-9.6c20.4-30.8,42.4-60.6,63.3-91.1c29.6-43.2,58.8-86.6,88.1-130.1c19.9-29.6,39.2-59.6,59.3-89.1
				c22.6-33.3,46.1-66,68.7-99.3c18.8-27.7,39.4-54.6,54.4-84.3c10.8-21.3,13.2-46.9,20.7-70.1c1.3-3.9,9.2-6.4,14.5-8.2
				c10.2-3.5,20.7-6.1,31.1-8.8c6.3-1.7,12.6-3,22-5.2c-3.2,15.4-5.3,25.1-7.3,34.9c-8.6,4.5-19.6,6.9-25.3,13.8
				c-17.9,21.5-45.1,32.8-56.6,62.2c-10.6,27-31.3,49.9-47,75c-23.5,37.5-46.1,75.5-69.6,112.9c-22.7,36.1-46.8,71.3-69.3,107.6
				c-20.9,33.7-40.2,68.5-60.8,102.5c-16.1,26.4-33.2,52.2-49,76.9c5.9,8.8,11.2,16.7,16.5,24.6c-14.6,27.1-13.3,26.8,10.9,49.5
				c31.6,29.5,63.6,59.3,74.8,103.8c1.7,6.6,2.2,13.4,3.2,20.2c-3,10.2-7.1,20.3-8.9,30.8c-11.3,65.5-46.1,116.6-95.1,159.8
				c-11.9,10.5-22.1,23.6-30.6,37.1c-8.5,13.5-13.3,29.2-20.8,43.4c-2.5,4.7-8.2,7.7-12.5,11.5c-2.4-0.6-4.8-1.2-7.2-1.7
				c-19.8-19.2-48-26.9-66-15.8c-27.6,17-52.7,36.5-65.4,68.7c-4.3,11-13.6,20-20.6,29.9c-1.2-1.8-3.8-3.9-3.4-5.3
				c4.1-15.6-1.8-27.4-13.3-37.4c-2.1-7.4-2.4-16.4-6.9-21.9c-4.4-5.4-14-11-19.6-9.6c-7,1.8-16.2,10.2-16.9,16.6
				c-0.7,6.8,7.4,14.5,11.7,21.8c-0.2,6.6-0.5,13.1-0.7,19.7c-3.9,10.2-7.8,20.5-11.7,30.7c-7.5,19.6-15.5,39-22.4,58.7
				c-12.6,35.8-31.8,71.1-12.2,110.6c3.6,8.2,8.8,16.2,10.5,24.8c2.1,11,7.3,19,18,17.4c10.9-1.6,24.9-4.8,30.3-12.5
				c4.4-6.3,1.5-22.8-4.2-29.9c-8.5-10.6-11.1-20-7.8-32.1c8.8-32.2,17.4-64.5,26.9-96.5c2.3-7.6,7.8-14.3,11.8-21.4
				c0.5,2.7,2.4,6.2,1.4,8C1212.8,1597.4,1216.5,1616.4,1222.8,1635.6z M1080.9,1403.1c-0.4-21.2-21.5-36.3-37.9-24.8
				c-29.3,20.5-56.9,43.7-84.3,66.8c-18.4,15.4-34.7,33.5-53.7,48.3c-5.9,4.6-17.4,2.2-26.3,2.9c-7.1,0.6-15.4-1-21.1,2.2
				c-18.3,10.2-19.3,22.9-5.4,45.1c2.4,6.9,2.9,16,7.6,20.4c16.5,15.6,52.9,15.3,69.3-0.8c33.1-32.3,64.5-66.4,98.2-98
				c10.1-9.4,17.4-32.5,39.1-16.9c3.5-2.2,6.3-4.7,9.6-5.9c15-5.6,18.9-16.2,10.6-29.8C1084.8,1409.3,1082.9,1406.2,1080.9,1403.1z"
				/>
			<path class="st3" d="M1203.4,1867.5c3.3,10,6.6,20.3-6.5,25.8c-11.6,4.9-21.1,5.3-29.8-8c-5.4-8.2-16.7-14.1-26.5-17.7
				c-27.3-9.9-55.6-15.8-83.1-1.8c-10.4,5.3-18.3,15.3-27.5,22.9c-18.1,14.9-36.2,29.8-54.4,44.4c-25.6,20.5-54.5,21.3-85.4,16
				c-15-2.6-31.2-1.4-46.4,1c-12.7,2-22.2,0.8-28-11c-6-12,2.3-18.6,10.7-25c19.2-14.8,42.3-13.4,61.5-6.3
				c46,17.1,73.5-9.9,101.4-37.1c41.6-40.3,88.9-60.8,147.6-47c5,1.2,10.2,1.1,15.3,1.6C1169.4,1839.4,1186.4,1853.4,1203.4,1867.5z
				"/>
			<path class="st3" d="M1080.9,1403.1c1.9,3.1,3.9,6.3,5.8,9.4c8.3,13.6,4.4,24.1-10.6,29.8c-3.3,1.2-6.2,3.7-9.6,5.9
				c-21.7-15.6-29,7.5-39.1,16.9c-33.7,31.6-65.1,65.7-98.2,98c-16.4,16.1-52.8,16.3-69.3,0.8c-4.7-4.5-5.2-13.5-7.6-20.4
				c2-1.6,4.8-2.7,5.9-4.8c13.2-23.2,12.9-22.8,37.2-11.1c4.3,2.1,12.7,0.5,16.8-2.6c10.4-7.9,19.5-17.7,29.1-26.7
				c24.8-23.5,48.6-48.1,74.5-70.2C1034,1412.5,1053.3,1395.7,1080.9,1403.1z"/>
			<path class="st3" d="M1232.3,1536.9c-3.3,11.2-6.6,22.4-9.9,33.5c-4,7.1-9.5,13.8-11.8,21.4c-9.5,32-18.1,64.3-26.9,96.5
				c-3.3,12.1-0.7,21.6,7.8,32.1c5.7,7.1,8.6,23.7,4.2,29.9c-5.4,7.7-19.5,10.9-30.3,12.5c-10.8,1.6-15.9-6.4-18-17.4
				c-1.7-8.6-6.9-16.5-10.5-24.8c1.1-3.2,2.8-6.4,3.3-9.8c1.6-10.8,1-22.3,4.5-32.4c14.3-41.2,30.1-81.8,44.8-122.9
				c4.4-12.3,11.1-26-6.2-34.9c0.2-6.6,0.5-13.1,0.7-19.7c9.4-7.5,19.1-13.9,31.6-6.9c11.5,10,17.4,21.8,13.3,37.4
				C1228.5,1532.9,1231.1,1535.1,1232.3,1536.9z"/>
			<path class="st3" d="M1650.4,2029.8c-2.1,5-4.3,9.9-6.4,14.9c-9.9,8-19.7,16-29.6,23.9c-3.6,4.5-7.3,9-10.9,13.5
				c0.4,1.3,0.7,2.7,1.1,4c3,4.6,6.1,9.3,9.1,13.9c0.6,8.1,3.2,16.8,1.1,24.2c-1.7,6-9.2,14.6-13.7,14.4
				c-7.3-0.4-14.7-6.5-21.2-11.3c-3.1-2.3-4.2-7.3-6.2-11c-0.3-2.4-0.5-4.8-0.8-7.2c-1-3.8-1.9-7.6-2.9-11.4
				c-3.3-7.1-6.6-14.1-9.9-21.2c-1.5-5.1-3.1-10.2-4.6-15.3c-1.9-7.7-3.8-15.4-5.7-23.1c-1.5-5.1-3.1-10.2-4.6-15.3
				c-3.3-7.1-6.6-14.1-9.9-21.2c-5-17.9-10-35.8-15-53.7c-2.9-8.1-5.9-16.2-8.8-24.2c-2.2-6.5-4.4-13-6.6-19.5
				c-1.6-5.3-3.3-10.6-4.9-15.9c-1.2-6.1-2.3-12.2-3.5-18.4c-2.7-5.7-5.3-11.3-8-17c-2.8-7.9-5.7-15.8-8.5-23.7
				c-1.3-6.3-2.5-12.6-3.8-19c-1.5-5.1-3.1-10.2-4.6-15.3c-2.7-5.7-5.3-11.3-8-17c-2.5-8.9-4.9-17.8-7.4-26.7
				c-1.6-5.3-3.3-10.6-4.9-15.9c-1.5-5.1-3.1-10.2-4.6-15.3c-2.9-8.1-5.9-16.2-8.8-24.2c-5-17.9-10-35.8-15-53.7
				c-3.3-7.1-6.6-14.1-9.9-21.2c-2.2-6.5-4.4-13-6.6-19.5c-1.3-6.3-2.5-12.6-3.8-19c-1.5-5.1-3.1-10.2-4.6-15.3
				c-3.3-7.1-6.6-14.1-9.9-21.2c-1.8-7.5-3.6-15-5.5-22.5c-1.6-5.3-3.3-10.6-4.9-15.9c-1.5-5.1-3.1-10.2-4.6-15.3
				c-2.6-5.6-5.3-11.3-7.9-16.9l0.1,0.1c-1-3.9-1.9-7.8-2.9-11.7c-1.6-5.1-3.1-10.2-4.7-15.3c-1.6-5.3-3.3-10.6-4.9-15.9
				c-0.9-3.7-1.8-7.4-2.8-11.1c-3.6-9.5-7.1-18.9-10.7-28.4c-2.2-6.5-4.4-13-6.6-19.5c-1.6-5.3-3.2-10.5-4.9-15.8l0.1,0.1
				c-2.9-8.1-5.8-16.1-8.6-24.2l0.1,0.2c-1-3.9-2-7.7-3-11.6c-2.2-6.5-4.4-13-6.6-19.5c-1.3-6.3-2.5-12.6-3.8-18.9
				c-1.2-3.8-2.3-7.5-3.5-11.3c-2.7-4.6-5.4-9.2-8.1-13.8l0.1,0.2c-1.7-5.2-3.3-10.5-5-15.7l0.1,0.1c-0.2-2.4-0.5-4.8-0.7-7.2
				c-1.6-5.2-3.2-10.4-4.8-15.6c-1.6-5.3-3.3-10.6-4.9-15.9c-0.5-2.4-1-4.7-1.6-7.1c-4-10.8-7.9-21.6-11.9-32.4
				c-4-14.1-8.1-28.2-12.1-42.3c-2.6-5.7-5.3-11.3-7.9-17l0.1,0.2c-1.7-5.3-3.3-10.5-5-15.8c-2.2-6.5-4.4-13-6.6-19.5
				c-1.3-6.3-2.5-12.6-3.8-19c-0.5-2.4-1.1-4.7-1.6-7.1c-2.7-4.6-5.4-9.3-8.1-13.9c-0.5-5.8-1-11.6-1.5-17.3c1.5-4.1,3-8.2,4.5-12.2
				c4.4-2.1,8.8-4.1,13.2-6.2c5.2,1.7,10.3,3.4,15.5,5.1c3,7.3,6,14.6,9,21.8c1.2,6.2,2.5,12.4,3.7,18.7c2.9,5.6,5.8,11.3,8.7,16.9
				c1.3,4.3,2.6,8.6,3.9,12.7c52.3-11.9,76.7,18.8,81.5,46.1c1.3,2.8,2.5,5.6,3.8,8.4c1.6,5.2,3.2,10.4,4.9,15.6
				c4,11.6,8,23.3,11.9,34.9c2.5,5.8,4.9,11.7,7.4,17.5c3.4,10.4,6.9,20.8,10.3,31.1c0.4,1.4,0.8,2.8,1.1,4.2l-0.1-0.2
				c3.6,9.4,7.2,18.9,10.7,28.3c0.6,2.4,1.2,4.8,1.8,7.3c0.4,1.4,0.7,2.7,1.1,4.1c1.9,4.1,3.8,8.2,5.7,12.3
				c0.6,4.9,1.2,9.9,1.8,14.8c6.1,16,12.2,31.9,18.3,47.9c0.4,1.4,0.7,2.7,1.1,4.1c1.5,5.1,3,10.3,4.5,15.4c2.2,7.7,4.4,15.4,6.6,23
				c2.6,4.5,5.3,9,7.9,13.5c0.6,4.9,1.3,9.8,1.9,14.8c3.4,10.4,6.8,20.7,10.3,31.1c0.4,1.4,0.8,2.8,1.2,4.2l-0.1-0.2
				c3.6,9.5,7.1,18.9,10.7,28.4c2.2,7.6,4.4,15.2,6.6,22.8c0.4,1.4,0.7,2.8,1.1,4.1c2.5,8.9,4.9,17.8,7.4,26.8
				c2.7,5.7,5.3,11.3,8,17c1.2,2.7,2.5,5.4,3.7,8.1c1,3.9,2,7.8,3,11.7c0.6,2.4,1.2,4.8,1.8,7.3c0.4,1.3,0.7,2.7,1.1,4
				c1.8,7.6,3.6,15.1,5.4,22.7c3.3,7.1,6.6,14.1,9.9,21.2c0.6,1.3,1.2,2.6,1.8,3.9c1.9,7.8,3.9,15.6,5.8,23.4c0.5,2.3,1,4.6,1.5,6.8
				c0.4,1.4,0.8,2.8,1.2,4.3c0.6,1.3,1.2,2.6,1.8,3.9c4,8.4,8,16.9,11.9,25.3c-0.3,1-0.4,2-0.3,3c2.9,10.5,5.8,21.1,8.7,31.6
				c0.5,2.3,1,4.6,1.5,6.8c0.4,1.4,0.8,2.8,1.2,4.3c1.2,2.7,2.5,5.4,3.7,8.1c3,8.1,6,16.1,8.9,24.2c-0.3,1-0.4,2-0.3,3
				c0.4,1.4,0.8,2.8,1.2,4.2c2.8,9,5.7,18,8.5,27c0.3,1.3,0.7,2.7,1,4c0,0-0.1-0.1-0.1-0.1c4.8,12.1,9.6,24.3,14.5,36.4
				c1.9,7.6,3.7,15.2,5.6,22.8c2.6,9.2,5.2,18.4,7.7,27.6c0.5,2.3,1,4.6,1.6,6.8c4.9,14.6,9.8,29.2,14.6,43.8
				c1.2,3.8,2.4,7.6,3.6,11.4c0.4,1.4,0.8,2.8,1.2,4.2c1.3,2.7,2.5,5.4,3.8,8.1c0.4,2.8,0.8,5.7,1.2,8.5c-0.2,0.9,0.1,1.6,0.9,2
				c1.7,6.3,3.3,12.6,5,18.9C1648.7,2008,1649.6,2018.9,1650.4,2029.8z M1491.1,1729.8c2.8,9,5.7,18,8.5,27c0.4,1.5,0.8,3,1.2,4.4
				c7.9,23.5,15.8,47,23.7,70.5c0.4,1.4,0.7,2.8,1.1,4.2c7.6,24.6,15.1,49.2,22.7,73.8c0.4,1.5,0.8,3,1.2,4.4
				c7.9,23.5,15.8,47,23.7,70.5c0.4,1.5,0.8,3,1.2,4.5c5.6,17,11.1,34,17,51.7c25.8-20.6,26.2-22.6,15.1-52.4
				c-3.2-8.5-6.1-17.2-8.6-25.9c-5.6-19.7-10-39.9-16.6-59.3c-10.3-30.1-22.9-59.3-33.1-89.4c-9.8-29-17.6-58.7-26.8-88
				c-17.9-56.7-35.7-113.4-54.3-169.9c-12.2-37.1-26.3-73.6-38.6-110.7c-16.6-50.1-32.2-100.5-48.3-150.8
				c-9.6-29.9-18.9-59.9-29.2-89.5c-9.3-26.8-20.3-52.9-29.1-79.8c-4.9-15-13.6-20.2-28.3-17.9c-1.1,3.1-2.2,6.1-3.3,9.2
				c4.1,11.7,8.2,23.5,12.3,35.2c0.4,1.5,0.8,3,1.2,4.4c3.4,10.3,6.9,20.6,10.3,30.9c0.4,1.5,0.8,2.9,1.2,4.4
				c4.1,11.7,8.2,23.4,12.2,35.1c0.4,1.5,0.8,3,1.2,4.5c3.1,11.3,6.1,22.6,9.2,34c0.4,1.5,0.8,2.9,1.2,4.4
				c4.5,10.7,8.9,21.4,13.4,32.1c0.4,1.5,0.8,3,1.2,4.4c3.1,11.3,6.1,22.7,9.2,34c0.4,1.5,0.8,2.9,1.2,4.4
				c4.1,11.7,8.2,23.5,12.2,35.2c0.4,1.5,0.8,3,1.2,4.4c3.4,10.3,6.9,20.6,10.3,30.9c0.4,1.5,0.8,2.9,1.2,4.4
				c4.1,11.7,8.2,23.4,12.3,35.2c0.4,1.4,0.7,2.8,1.1,4.2c3.8,11.7,7.6,23.4,11.3,35.1c0.5,2.2,1,4.5,1.5,6.7
				c10.1,29.3,20.6,58.5,30.3,88c5.9,17.9,10.7,36.1,16,54.2c1.2,2.5,2.3,5.1,3.5,7.6c3.3,10.7,6.6,21.3,9.9,32
				c0.4,1.5,0.8,3,1.2,4.5c3.4,10.3,6.9,20.6,10.3,30.9C1487.9,1721.4,1489.5,1725.6,1491.1,1729.8z"/>
		</g>
	</g>
</g>
</svg>
