<?xml version="1.0" encoding="UTF-8"?>
<svg id="Layer_2" data-name="Layer 2" xmlns="http://www.w3.org/2000/svg" viewBox="0 0 2464.93 2464.93">
  <defs>
    <style>
      .cls-1 {
        fill: #fff;
      }

      .cls-1, .cls-2 {
        stroke-width: 0px;
      }

      .cls-2 {
        fill: #1d1d1b;
      }
    </style>
  </defs>
  <g id="Camada_1" data-name="Camada 1">
    <circle class="cls-2" cx="1232.46" cy="1232.46" r="1232.46"/>
    <g id="b34kDd">
      <g>
        <path class="cls-1" d="M1734.52,1582.97c0,41.76-.76,81.75.27,121.68.67,26.19-9.79,45.84-29.8,61.2-40.18,30.83-87.73,44.36-135.82,55.34-142.33,32.49-286.8,38.07-432.02,31.51-96.81-4.37-193.2-13.66-285.97-43.14-33.36-10.6-65.18-27.6-95.67-45.21-21.68-12.53-30.11-35.02-29.3-61.05,1.11-35.57.05-71.21.72-106.8.19-10.12-3.18-15.05-12.28-19.73-24.89-12.8-37.26-34.24-37.41-62.3-.18-33.11-.06-66.22-.07-99.33-.01-29.52,13.12-50.88,38.57-65.94,5.38-3.18,10.31-12.03,10.44-18.37.85-39.96,1.05-79.97-.06-119.92-.74-26.76,9.47-47.1,30.1-63.03,38.56-29.78,84.14-43.08,130.33-54.1,129.73-30.96,261.74-37.11,394.44-34.15,109.48,2.44,218.46,11.14,323.78,42.86,35.23,10.61,68.64,28.8,100.96,46.94,21.2,11.9,29.59,33.92,29.07,59.21-.84,40.59,0,81.21-.56,121.81-.14,9.96,2.56,15.28,11.94,20.1,24.79,12.75,37.42,34.07,37.61,62.18.2,29.99-.81,60.01.36,89.95,1.48,37.94-12.66,65.42-49.63,80.3ZM1228.4,1294.85c110.69-.85,220.86-7.48,329.13-32.44,40.71-9.39,81.34-20.01,116.11-44.82,18.43-13.15,19.29-24.77-.33-35.85-24.73-13.98-51.04-26.46-78.14-34.72-82.85-25.23-168.47-34.61-254.67-39.2-145.18-7.72-289.88-4.44-432.14,28.38-40.18,9.27-79.24,25.74-116.77,43.28-24.82,11.6-24.35,27.25.15,40.52,26.09,14.13,53.96,26.36,82.47,34.37,115.75,32.53,234.77,38.9,354.21,40.47ZM1411.5,1707.85c3.04-16.3,1.85-26.68-14.41-34.74-22.78-11.29-33.33-32.99-33.58-58.64-.34-34.33-.44-68.67-.03-103,.33-27.88,12.72-49.43,37.72-62.08,11.09-5.61,14.84-11.66,10.66-19.97h-375.33c3.74,5.85,6.23,14.61,11.84,17.7,28.15,15.53,40.79,39.09,40.73,70.5-.05,29.97.04,59.93.05,89.9.01,31.38-12.82,54.82-40.68,70.75-5.44,3.11-8.72,13.65-8.81,20.82-.04,3.16,10.12,8.67,16.06,9.31,25.42,2.76,50.96,4.66,76.51,5.87,92.92,4.4,185.74,3.47,279.27-6.41ZM1460.4,1701.09c3.45,0,6.56.54,9.43-.08,45.6-9.88,91.71-17.99,136.52-30.67,24.68-6.98,48.19-20.03,70.3-33.5,16.56-10.09,18.15-49.89,4.16-56.91-31.18-15.66-43.11-41.52-42.5-74.91.77-41.91,1.42-83.82,2.07-122.38-58.27,12.98-119.37,26.59-180.53,40.21q-1.75,18.73,13.13,27.26c23.17,13.24,34.95,33.97,35.77,59.85,1.1,34.91.96,69.9-.04,104.82-.79,27.6-13.56,49.46-38.92,61.48-12.23,5.79-12.39,13.38-9.39,24.84ZM990.05,1700.75c1.95-1.69,3.9-3.38,5.84-5.07-4.55-6.37-7.72-15.12-13.89-18.68-25.7-14.85-38.57-36.28-38.56-65.76.01-29.97.65-59.96-.22-89.91-.99-33.85,11.45-58.89,42.04-75.25,4.72-2.52,6.88-13.06,6.83-19.87-.02-3.27-7.54-8.35-12.37-9.43-40.71-9.1-81.64-17.18-122.36-26.19-13.51-2.99-26.63-7.77-35.23-10.33,0,47.78,1.13,94.94-.45,142-.86,25.41-16.08,43.56-38.32,56.29-5.12,2.93-10.13,10.61-10.56,16.45-2.52,33.61,5.01,44.5,42.35,61.01,55.79,24.67,115.16,35.57,174.91,44.74ZM1411.84,1754.3c-124.66,10.94-247.78,10.74-372.07-.95v43.81c49.41,15.39,315.61,16.54,372.07,1.52v-44.38ZM1411.26,1379.42v-43.32h-370.94v42.24c124.42,12.51,247.15,12.52,370.94,1.08ZM1459.39,1374.02c28.05-4.92,54.32-7.18,79.16-14.4,42.31-12.29,84.56-25.64,125.18-42.52,25.73-10.69,29.56-26.32,21.63-51.67-70.66,37.04-148.31,48.96-225.97,61.73v46.86ZM1460.56,1794.81c16.34-2.55,32.28-4.54,48.02-7.58,53.18-10.26,106.42-20.71,154.29-47.83,25.37-14.38,28.81-23.11,23.64-52.41-61.08,31.94-127.13,45.96-194.18,56.55-35.85,5.67-35.85,5.78-33.54,42.82.15,2.37.96,4.69,1.76,8.44ZM775.15,1265.03c-5.66,28.79-2.54,41.26,22.19,52.1,35.17,15.41,71.82,27.95,108.71,38.74,27.56,8.06,56.5,11.42,85.97,17.09v-47.31c-74.35-12.42-148.18-24.62-216.87-60.61ZM775.05,1687.23c-5.55,26.82-3.02,36.79,17.57,48.3,19.42,10.86,39.82,21.29,61.09,27.25,45.08,12.62,91.02,22.2,138.2,33.4v-48.68c-75.02-11.92-149.03-24.79-216.86-60.28ZM1463.19,1562.57c0-16.19.48-32.4-.13-48.57-.67-17.72-10.01-26.58-26.61-26.63-17.97-.05-27.3,8.7-27.55,27.52-.42,31.76-.41,63.52.01,95.28.24,18.26,8.88,26.89,25.67,27.43,18.37.59,27.64-7.51,28.49-26.46.72-16.16.15-32.38.12-48.57ZM1043.21,1563.36c0-14.95,0-29.89,0-44.84,0-1.25.02-2.49-.05-3.74-1.05-18.29-9.36-27.07-25.9-27.38-18.22-.34-27.98,8.2-28.29,26.74-.53,32.37-.53,64.77-.03,97.14.27,17.66,9.74,26.29,26.73,26.41,17.41.12,26.49-7.84,27.34-25.77.77-16.15.16-32.37.21-48.56ZM776.84,1463.31c0-16.19.54-32.4-.14-48.56-.78-18.2-9.4-25.84-27.14-25.69-17.5.15-26.53,8.2-26.82,26.07-.52,32.37-.46,64.76,0,97.13.25,17.4,10.22,27.13,26.3,27.49,17.1.39,27.01-9.18,27.64-27.88.54-16.17.11-32.37.16-48.56ZM1738.41,1464.44c0-15.56,0-31.13,0-46.69,0-1.25.02-2.49-.04-3.73-.8-16.45-9.03-24.98-25.91-25.05-18.07-.07-27.2,7.16-27.55,24.98-.65,32.98-.61,65.99-.09,98.98.28,17.61,10.26,26.87,26.62,26.84,16.28-.04,26.34-9.64,26.86-26.75.49-16.17.11-32.37.11-48.56Z"/>
        <path class="cls-1" d="M1751.64,617.69c21.89,1.26,39.51,12.84,48.95,34.75,9.9,22.98,4.81,44.39-12.31,62.08-27.35,28.25-55.43,55.79-83.24,83.6-72.82,72.84-145.74,145.58-218.41,218.56-15.25,15.32-32.12,26.09-54.65,22.73-22.14-3.3-37.91-15.48-45.68-36.73-8.38-22.92-2.74-43.21,14.02-60.15,43.9-44.38,88.13-88.42,132.26-132.57,56.49-56.51,113.12-112.87,169.43-169.55,13.3-13.39,27.96-22.76,49.63-22.72ZM1763.24,670.69c-4.47-2.5-8.51-6.68-11.85-6.18-5.56.84-11.86,3.48-15.81,7.42-99.53,99.15-198.88,198.47-297.78,298.25-4.41,4.45-4.21,13.48-6.15,20.38,6.97-1.57,16.27-.8,20.57-5.07,99.79-98.9,199.06-198.33,298.31-297.77,3.79-3.8,6.52-8.66,12.7-17.03Z"/>
        <path class="cls-1" d="M723.8,617.24c7.57,4.15,23.37,8.88,33.73,19.11,102.65,101.4,204.59,203.51,306.26,305.9,24.34,24.52,24.24,57.65,1.94,80.57-22.65,23.28-57.02,23.91-81.99-.89-102.83-102.11-205.19-204.69-307.38-307.44-17.39-17.49-21.79-39.15-11.75-62.14,9.62-22.04,27.46-33.09,59.18-35.1ZM716.55,661.83c-3.68,3.09-9.45,5.81-9.34,8.27.24,5.5,1.91,12.36,5.61,16.08,99.52,100.05,199.28,199.87,299.51,299.21,4.32,4.28,13.56,3.59,20.51,5.22-1.9-6.91-1.62-15.98-6.02-20.41-98.9-99.77-198.31-199.05-297.69-298.35-3.44-3.43-7.62-6.11-12.58-10.02Z"/>
      </g>
    </g>
  </g>
</svg>