<?xml version="1.0" encoding="UTF-8"?>
<svg id="Layer_2" data-name="Layer 2" xmlns="http://www.w3.org/2000/svg" viewBox="0 0 2464.93 2464.93">
  <defs>
    <style>
      .cls-1 {
        fill: #fff;
        stroke: #fff;
        stroke-linecap: round;
        stroke-linejoin: round;
        stroke-width: 30px;
      }

      .cls-2 {
        fill: #1d1d1b;
        stroke-width: 0px;
      }
    </style>
  </defs>
  <g id="Camada_1" data-name="Camada 1">
    <circle class="cls-2" cx="1232.46" cy="1232.46" r="1232.46"/>
    <g id="IQDS5T.tif">
      <g>
        <path class="cls-1" d="M1973.37,549.52c-7.13,10.7-14.26,21.41-21.39,32.11,1.21.04,2.41.09,3.62.13.98,8.18,4.97,17.85,1.91,24.04-2.13,4.31-13.92,3.85-21.4,5.52-.43-1.21-.85-2.41-1.28-3.62-4.1,5.91-7.26,12.92-12.54,17.44-6.26,5.36-14.42,12.02-21.63,11.88-9.79-.19-14.95,3.62-20.55,9.81-10.99,12.15-22.29,24.01-33.9,36.47,7.31,10.24,13.18,18.81,28.6,11.6,10.73-5.03,23.14-2,31.38,8.25,7.65,9.52,7.87,20.3,3.23,31.38-6.65,15.88-17.02,29.25-34.11,32.57-9.74,1.89-23.83.59-30.29-5.39-6.38-5.91-9.67-20.73-7.08-29.5,4.07-13.76.16-20.66-11.65-27.5-15.86,16.87-31.95,33.97-48.28,51.33,5.83,11.13,12.41,15.82,25.2,9.74,10.8-5.13,23.75-3.05,30.08,6.86,5.05,7.9,7.76,20.24,5.61,29.2-4.77,19.88-18.46,33.56-39.37,37.86-23.77,4.89-40.67-14.46-33.23-37.63q4.43-13.78-8.29-24.44c-83.44,89.21-166.95,178.5-249.73,267.01,12.1,24.11,25.23,46.64,35.01,70.53,21.7,53,29.09,107.67,12.95,163.91-10.12,35.28-30.17,64.23-57.89,88.79,122.17,122.16,243.73,243.72,366.44,366.42-15.37,14.47-29.04,27.35-43.62,41.07,3.58,4.1,6.13,7.38,9.04,10.31,17.34,17.45,34.79,34.79,52.15,52.22,6.53,6.56,9.58,13.9,1.88,21.36-7.1,6.87-14.06,4.08-20.27-2.05-3.09-3.05-6.16-6.12-9.23-9.19-138.83-138.8-277.66-277.6-416.44-416.44-3.72-3.73-6.86-8.04-10.48-12.33-19.34,9.16-31.6,22.9-41.63,38.96-3.31,5.3-5.79,11.12-8.99,16.49-12.93,21.64-36.91,21.35-49.27-.52-8.91-15.75-16.29-20.19-32.76-12.72-16.81,7.62-33.5,17.37-47.23,29.57-36.09,32.09-60.85,71.91-72.05,119.32-2.07,8.76-2.46,18.1-2.33,27.16.16,11.58,5.78,19.62,17.23,24.12,13.31,5.23,28.61,9.76,29.07,28.02.45,18.03-14.58,23.33-27.15,30.22-25.02,13.7-38.89,35.98-50.15,61.32-13.25,29.83-26.15,60.29-43.57,87.69-54.78,86.16-135.43,116.49-234.15,100.2-95.47-15.75-172.94-65.91-239.86-133.29-60.82-61.23-106.49-132.01-125.59-217.41-17.72-79.22-7.07-152.62,50.02-214.45,29.25-31.68,65.97-52.88,105.1-70.09,9.25-4.07,18.67-7.78,28.16-11.28,30.17-11.14,53.77-29.65,67.55-59.41,5.04-10.88,12.94-18.37,25.55-17.91,12.75.47,19.07,9.17,23.92,20.05,11.58,25.99,20.54,31.27,48.36,25.24,62.16-13.48,111.04-47.31,146.6-99.95,5.01-7.42,8.23-16.39,10.72-25.09,3.42-11.95.16-21.99-12.26-27.35-11.08-4.78-18.18-12.45-18.39-25.15-.22-13.32,7.25-21.47,18.45-26.86,21.71-10.44,40.18-24.36,53.83-50.62-4.09-2.67-9.69-5.11-13.72-9.13-108.25-107.98-216.34-216.13-324.46-324.25-2.73-2.73-6.95-5.07-7.83-8.31-1.68-6.18-1.45-12.88-2.02-19.37,6.5-.1,13.05-.69,19.47-.05,2.33.23,4.37,3.4,6.39,5.1,44.66-19.51,68.65-14.94,102.96,19.37,85.27,85.26,170.55,170.52,255.76,255.84,3.74,3.74,6.89,8.08,10.47,12.3,106.42-101.9,215.06-74.02,325.92-9.89,100.78-94.22,202.19-189.01,307.43-287.39-8.68-1.21-14.06-3.51-18.46-2.29-17.72,4.9-30.25,2.86-38.2-7.63-7.64-10.08-7.71-28.08,2.92-40.38,8.16-9.45,18.84-17.58,29.91-23.44,11.02-5.83,23.05-2.36,31.71,6.86,8.38,8.92,9.05,20.02,4.31,31.04-3.13,7.28-5.29,13.73,5.62,19.07,7.97-7.42,16.69-15.5,25.36-23.62,8.76-8.21,17.47-16.46,26.27-24.76-4.7-9.15-9.68-11.96-19.68-7.59-11.52,5.03-23.93,4.22-33.48-5.64-9.6-9.91-9.2-21.75-4.3-33.67,6.56-15.96,17.71-27.55,34.35-32.83,11.74-3.72,23.27-2.53,32.12,6.84,8.43,8.93,9.94,20.28,4.69,30.96-4.98,10.13-2.54,16.2,9.89,22.78,2.49-6.61,4.32-13.21,7.39-19.17,4.62-8.97,9.46-17.97,15.5-25.99,3.28-4.36,9.22-6.73,10.51-11.19,1.62-7.49.88-18.22,5.5-21.59,4.76-3.47,14.75.24,22.44.81.23,1.78.46,3.57.69,5.35,11.02-7.33,22.04-14.67,33.06-22,5.79,0,11.58,0,17.37,0,13.51,13.51,27.01,27.01,40.52,40.52v17.37ZM954.42,1622.74c-14.08,9.35-27.3,19.06-41.37,27.33-85.45,50.24-160.71,112.81-226.96,186.39-3.11,3.46-6.3,6.85-9.94,10.81,65.15,53.64,135.52,92.63,220.28,98.76,51.43,3.72,98.43-8.87,138.46-42.95,37.83-32.22,59.8-74.73,78.64-119.54,7.41-17.64,14.81-36.1,26.36-50.96,12.79-16.44,30.34-29.19,45.5-43.26-36.76-22.39-45.37-37.1-37.08-77.4,14.69-71.43,54-127.16,115.31-166.26,36.54-23.31,62.19-17.78,87.93,13.34,16.99-20.37,34.27-41.08,49.01-58.76-37.64-38.13-76.4-77.39-115.37-116.87-27.05,28.87-54.92,58.62-82.11,87.64-36.89-36.81-72.69-72.53-109.24-109.01,29.61-27.7,59.7-55.85,89.39-83.64-40.06-40.01-78.92-78.82-115.99-115.84-20.35,16.92-41.19,34.24-61.56,51.16,30.57,22.51,37.57,43.27,17.43,79.89-36.35,66.13-94.22,106.23-167.14,122.58-43.59,9.77-58.86.6-80.08-36.96-.4-.7-1.46-1.02-2.9-1.97-18.63,39.29-51.93,59.77-91.13,75.04-27.58,10.74-54.19,25.24-79.05,41.41-41.08,26.72-68.32,64.61-79.23,113.11-10.59,47.06-4.21,92.85,10.79,137.96,17.84,53.65,46.89,100.64,82.16,142.18,96.39-75.9,162.82-174.8,224.82-277.03,38.67,38.59,75.18,75.02,113.08,112.84ZM1705.66,726.69c-145.81,136.33-292.2,273.21-436.58,408.2,20.79,20.86,40.65,40.78,60.96,61.16,135.69-145.14,272.52-291.51,408.25-436.69-11.55-11.57-21.69-21.72-32.63-32.66ZM1398.66,976.92c-54.99-34.97-111.79-54.71-175.47-48.39-43.57,4.32-79.28,23.67-104.81,55.23,44.54,44.6,87.94,88.07,131.83,132.02,48.15-45.04,97.69-91.38,148.45-138.85ZM1487.48,1067c-46.8,50.04-93.39,99.85-139.03,148.65,44.2,44.4,87.56,87.96,131.03,131.62,81.13-60.38,71.79-188.28,7.99-280.27ZM1453.95,1403.08c94.51,94.58,188.22,188.35,281.4,281.6,5.87-5.32,13.29-12.04,19.9-18.03-93.42-93.42-186.02-186.02-279.28-279.27-7.35,5.24-15.49,11.06-22.02,15.71ZM1078.43,988.16c-2.16-2.51-3.32-4.05-4.66-5.39-74.56-74.6-149.12-149.2-223.77-223.71-4.05-4.05-8.57-7.91-13.51-10.74-14.02-8.04-28.41-9.63-41.2-2.34,88.62,88.61,177.02,177,266,265.98,4.95-6.87,10.8-14.99,17.15-23.81ZM910.56,1619.72c-22.11-22.14-43.33-43.39-65.22-65.31-27.2,40.97-55.01,82.87-82.06,123.61,7.66,8.92,14.45,16.84,21.6,25.16,42.83-28.44,84.43-56.07,125.68-83.46ZM1201.8,1197.75c-23.19,21.71-46.32,43.36-68.24,63.89,23.49,23.5,46.47,46.49,69.83,69.85,20.9-22.37,42.76-45.78,63.79-68.29-22.27-22.29-43.28-43.32-65.38-65.45ZM1307.37,1259.74c42.18,42.12,83.3,83.18,125.35,125.17,7.17-5.12,15.84-11.3,21.92-15.65-43.35-43.4-85.98-86.1-128.98-129.15-5.28,5.67-11.81,12.67-18.3,19.63ZM1225.94,1138.52c-43.76-43.79-86.46-86.53-129.49-129.59-5.33,7.73-11.28,16.35-15.04,21.8,42.4,42.43,83.71,83.76,125.41,125.49,5.47-5.07,12.5-11.56,19.12-17.69ZM1856.31,563.38c15.63,15.63,30.33,30.32,45.34,45.32,14.41-21.62,29.71-44.57,43.59-65.39-8.13-9.37-14.65-16.88-21.56-24.85-23.49,15.67-46.17,30.79-67.37,44.92ZM747.05,1703.77c-36.26,36.15-72.19,71.98-108.4,108.08,4.49,4.63,10.17,10.48,15.02,15.49,36.46-36.58,72.32-72.55,107.47-107.81-4.68-5.24-10.39-11.63-14.09-15.76ZM1224.6,1176.42c22.06,22.06,42.66,42.67,64.01,64.01,6.14-6.71,13.08-14.3,18.26-19.96-21.46-21.44-41.7-41.67-62.49-62.45-6.1,5.67-13.39,12.45-19.77,18.39ZM1776.34,1687.26c-7.73,7.11-15.06,13.86-21.36,19.66,16.04,15.9,32.22,31.94,47.59,47.17,6.29-6.31,13.51-13.56,20.19-20.25-15.56-15.62-31.43-31.55-46.41-46.58ZM803.18,713.7c-16.51-20.09-38.31-24.83-58.07-10.75,7.48,6.65,14.47,13.24,21.92,19.27,2.24,1.81,6.24,3.59,8.55,2.79,9.38-3.22,18.41-7.44,27.61-11.31ZM1728.38,705.65c10.56,10.67,20.49,20.72,30.87,31.21,4.45-4.77,9.23-9.9,13.7-14.71-10.19-10.6-19.71-20.49-29.54-30.71-5.73,5.42-10.89,10.3-15.03,14.21ZM1806.23,686.63c-9.93-10.06-18.53-18.78-27.5-27.88-4.35,4.47-9.18,9.44-11.7,12.03,8.64,10.42,16.78,20.22,25.35,30.55,5.6-5.94,10.15-10.77,13.85-14.71ZM1840.18,650.21c-8.74-9.59-16.07-17.64-24.15-26.52-5.13,4.8-10.15,9.51-14.57,13.64,8.84,9.74,16.76,18.47,25.13,27.7,5.57-6.07,10.04-10.96,13.59-14.83ZM1862.08,627.92c1.63-3.48,5.35-8.57,4.37-9.76-6-7.24-12.82-13.91-20.08-19.89-.97-.8-6.03,3.38-8.97,5.12,8.7,8.64,16.01,15.9,24.69,24.52ZM1886.54,724.16c-1.3-1.24-2.61-2.49-3.91-3.73-11.22,2.78-17.39,9.88-19.43,20.5,1.24,1.14,2.49,2.28,3.73,3.41,6.54-6.73,13.07-13.45,19.61-20.18ZM1815.77,794.75c-1.89-1.88-3.77-3.75-5.66-5.63-6.58,6.88-13.17,13.76-19.75,20.63,1.73,1.71,3.47,3.43,5.2,5.14,6.74-6.72,13.47-13.43,20.21-20.15ZM1691.01,639.48c1.95,1.92,3.91,3.84,5.86,5.75,6.49-6.81,12.98-13.62,19.46-20.44-1.71-1.7-3.41-3.4-5.12-5.1-6.74,6.59-13.47,13.19-20.21,19.78ZM1761.76,568.89c1.96,1.82,3.92,3.65,5.89,5.47,6.52-6.94,13.04-13.87,19.56-20.81-1.77-1.68-3.54-3.37-5.31-5.05-6.71,6.8-13.42,13.59-20.13,20.39Z"/>
        <path class="cls-1" d="M1135.54,1431.89c20.67.54,33.31,8.04,40.71,23.39,7.57,15.71,4.61,32.73-8.92,46.48-30.77,31.29-61.97,62.15-93,93.19-2.73,2.73-5.47,5.44-8.19,8.18-6.82,6.85-10.79,14.59-2.59,22.56,7.35,7.14,14.69,3.94,21.75-2,11.9-10,22.68-8.04,29.37,4.94,4.06,7.88,2.04,14.54-5.95,17.88-8.72,3.64-17.88,6.51-27.1,8.63-18.79,4.32-35.23-3.22-44.09-19.38-9-16.42-6.75-34.55,7.45-49.13,24.56-25.22,49.68-49.9,74.56-74.8,8.86-8.87,17.71-17.75,26.6-26.6,6.92-6.89,10.47-14.59,2.53-22.62-7.48-7.56-15.08-4.32-21.46,2.21-8.91,9.14-17.9,9.6-25.65-.5-3.1-4.05-5.36-10.8-4.22-15.38.88-3.53,7.35-6.38,11.87-8.15,9.68-3.8,19.71-6.7,26.33-8.89Z"/>
        <path class="cls-1" d="M1033.14,1328.33c-2.94,9.57-5.8,22.73-11.4,34.59-1.57,3.33-12.55,5.62-16.87,3.53-8.12-3.92-15.24-11.27-9.57-22.23,1.73-3.33,6.44-5.69,6.97-8.95,1.03-6.31,2.54-15.61-.78-18.71-3.42-3.19-14.17-2.98-18.52.16-10.04,7.24-18.17,17.15-27.04,26-25.94,25.89-51.6,52.05-77.88,77.59-14.88,14.46-34.03,16.29-50.42,6.28-15.24-9.3-22.33-27.09-17.54-45.2,2.18-8.24,4.85-16.41,8.01-24.32,3.2-7.99,9.42-10.77,17.54-7.15,10.89,4.85,15.46,16.1,10.03,24.79-2.28,3.64-7.19,6.45-7.78,10.13-.88,5.49-.96,13.47,2.28,16.59,3.18,3.06,11.19,2.52,16.59,1.34,3.65-.8,6.57-5.35,9.63-8.4,32.07-32.03,64.03-64.17,96.19-96.11,13.2-13.11,28.95-17.4,46.34-9.83,15.53,6.76,23.4,19.43,24.21,39.89Z"/>
        <path class="cls-1" d="M1053.53,1526.44c-4.93-3.22-9.39-5.19-12.62-8.39-31.43-31.13-62.65-62.47-93.92-93.75-6.42-6.42-10.23-13.67-2.58-21.26,7.46-7.39,14.92-4.22,21.41,2.26,31.3,31.26,62.8,62.33,93.56,94.11,3.81,3.94,5.07,11.81,4.73,17.69-.18,3.1-6.38,5.84-10.57,9.34Z"/>
      </g>
    </g>
  </g>
</svg>