<?xml version="1.0" encoding="UTF-8"?>
<svg id="Layer_2" data-name="Layer 2" xmlns="http://www.w3.org/2000/svg" viewBox="0 0 2464.93 2464.93">
  <defs>
    <style>
      .cls-1 {
        fill: none;
        stroke: #fff;
        stroke-linecap: round;
        stroke-linejoin: round;
        stroke-width: 50px;
      }

      .cls-2 {
        fill: #1d1d1b;
        stroke-width: 0px;
      }
    </style>
  </defs>
  <g id="Camada_1" data-name="Camada 1">
    <circle class="cls-2" cx="1232.46" cy="1232.46" r="1232.46"/>
    <g id="p3sNmJ">
      <g>
        <path class="cls-1" d="M1172.17,949.33c44.82,101.38,114.64,171.37,213.19,214.97-6.78,5.7-12.32,10.43-17.94,15.07-178.46,147.02-356.96,294.01-535.38,441.09-21.31,17.56-45.31,22.63-72.06,17.41-3.23-.63-8.43-.73-10,1.17-16.21,19.63-34.61,38.18-46.99,60.09-16.02,28.36-2.2,52.96,29.5,60.69,59.65,14.56,113.01-1.71,160.43-36.73,41.51-30.66,80.38-64.92,120-98.1,46.25-38.72,93.88-75.11,151.1-96.61,73.37-27.57,146.98-22.59,220.12.01,94.18,29.1,172.47,84.27,241.37,153.13,27.27,27.25,51.69,57.43,76.32,87.19,11.48,13.87,11.53,30.35,1.8,45.92-9.51,15.2-23.85,20.48-41.18,18.34-12.63-1.56-20.86-9.57-28.37-19.15-56.62-72.22-122.66-133.75-203.85-177.77-48.29-26.18-99.64-42.35-154.79-44.76-48.26-2.11-93.22,10.88-132.01,38.47-42.7,30.37-83.08,64.12-123.4,97.69-44.33,36.92-88.32,74.05-141.87,97.33-59.03,25.67-119.5,28.43-180.97,10.07-60.71-18.14-96.01-87.99-76.19-151.27,13.1-41.83,39.73-74.6,72.27-102.86,5.02-4.36,6.85-7.67,6.03-14.56-2.53-21.27,2.49-40.99,16.3-57.77,150.93-183.42,301.94-366.79,452.86-550.22,1.31-1.59,1.71-3.93,3.73-8.84Z"/>
        <path class="cls-1" d="M1453.73,587.23c160.44,2.43,303.65,151.99,296.46,316.06-1.55,35.33-10.67,68.67-27.18,100.09-4.22,8.03-8.89,10.5-17.8,8.78-190.2-36.8-343.93-191.36-379.78-381.58-1.54-8.16,1.27-11.27,7.36-14.66,35.75-19.84,74.27-28.36,120.93-28.69Z"/>
        <path class="cls-1" d="M1257.34,689.01c61.65,199.14,191.44,329.16,391.41,391.43-18.6,12.73-37.66,20.76-57.89,25.47-103.42,24.11-191.96-6.53-268.05-76.54-57.82-53.19-91.82-119.55-98.47-198.6-4.05-48.08,5-93.67,28.91-135.95,1-1.76,2.33-3.33,4.1-5.82Z"/>
      </g>
    </g>
  </g>
</svg>