<?xml version="1.0" encoding="utf-8"?>
<!-- Generator: Adobe Illustrator 27.4.1, SVG Export Plug-In . SVG Version: 6.00 Build 0)  -->
<svg version="1.1" id="Layer_2" xmlns="http://www.w3.org/2000/svg" xmlns:xlink="http://www.w3.org/1999/xlink" x="0px" y="0px"
	 viewBox="0 0 2464.9 2464.9" style="enable-background:new 0 0 2464.9 2464.9;" xml:space="preserve">
<style type="text/css">
	.st0{fill:#CBE5F4;}
	.st1{opacity:5.000000e-02;}
	.st2{opacity:0.25;fill:#FFFFFF;}
	.st3{fill:#002342;}
	.st4{fill:#86C7F7;}
</style>
<g id="Camada_1">
	<path class="st0" d="M2428.9,1232.5c0,624.7-478.7,1137.5-1089.3,1191.7c-35.3,3.1-71.1,4.7-107.2,4.7c-37.3,0-74.3-1.7-110.8-5.1
		C512.8,2367.9,36,1855.9,36,1232.5c0-641,504.1-1164.2,1137.4-1195c19.6-1,39.2-1.4,59-1.4c18.7,0,37.4,0.4,55.9,1.3
		C1923.2,66.5,2428.9,590.4,2428.9,1232.5z"/>
	<g>
		<path class="st1" d="M2428.9,1234.2c0,624.6-478.7,1137.5-1089.3,1191.7c500.5-161.6,862.6-631.4,862.6-1185.7
			c0-573.1-387-1055.8-913.9-1201.1C1923.2,68.2,2428.9,592.2,2428.9,1234.2z"/>
		<path class="st2" d="M1121.7,2425.6C512.8,2369.7,36,1857.6,36,1234.2C36,593.2,540.1,70,1173.5,39.2
			c-526.6,145.5-913.3,628-913.3,1200.9C260.1,1794.1,621.7,2263.6,1121.7,2425.6z"/>
	</g>
	<g id="MlGvv2.tif">
		<g>
			<path class="st3" d="M1307.3,1727.7c4.4,1.1,8.7,2.6,13.1,3.3c14.1,2.1,20.9,12.6,17.2,26.7c-2.9,11.3-5.5,22.8-8.2,34.2
				c-0.4,1-0.8,2-1.1,3c-8,29.3-14.7,59.1-24.4,87.8c-10,29.8-22.4,58.7-34.5,87.7c-19.7,47.6-46.3,91-81.4,128.9
				c-57.7,62.2-128.2,92.1-213.6,83.3c-34.7-3.6-67.9-12.9-100.3-25.7c-10.4-4.1-20.6-8.4-31-12.6c-25.9-14.9-51.9-29.6-77.7-44.7
				c-5.2-3.1-9.6-7.6-14.6-11.1c-3.7-2.5-8.1-4.1-11.7-6.7c-14.9-10.6-29.8-21.2-44.3-32.4c-10.7-8.3-20.6-17.5-30.7-26.5
				c-12-10.7-24.1-21.3-35.6-32.5c-7.8-7.6-14.7-16.3-21.9-24.5c-9.1-10.5-19.2-20.3-26.8-31.7c-13.4-20-25.6-40.8-37.6-61.7
				c-4.7-8.3-8.2-17.5-10.8-26.7c-4.6-16.8-9.2-33.8-11.6-51c-2.3-16.5-3.6-33.5-2.1-50.1c2.5-28.3,9.1-56,22.7-81.5
				c5-9.5,8.8-19.7,14.1-29c14.8-25.8,32.5-49.6,52.7-71.4c10.7-11.5,21.4-23.1,33-33.8c14.6-13.4,29.7-26.1,45.2-38.4
				c18.2-14.4,36.6-28.6,55.6-41.9c21.1-14.7,43-28.3,64.6-42.3c8.5-5.5,17.1-11,25.8-16.3c14.2-8.7,27.1-4.5,33.3,10.3
				c5.7,13.7,15.6,23.7,30.6,26.1c6.3,1,13.9,0,19.6-2.8c24.4-11.6,41.2-31.7,56.7-53c6.9-9.6,13.8-19.3,19.7-29.6
				c3.2-5.6,4.2-12.4,6.4-18.6c1.2-3.3,3.8-6.3,4.4-9.7c3.3-19.1-1.7-27-20.4-32.3c-10.2-2.8-18.1-8.4-20.8-18.3
				c-1.2-4.3,1.5-10.7,4.3-14.9c6.6-10,15.2-18.7,21.2-29c9.6-16.5,17.6-34,26.5-51c12.1-23.1,25.1-45.7,42.3-65.4
				c11-12.7,21.9-25.7,34.1-37.1c28.3-26.4,60.9-45.4,98.3-56.2c24-6.9,48.3-11,73.1-12c14.1-0.6,28.3-0.9,42.4-1
				c25.7-0.1,51-2.7,75.8-10c17.7-5.2,35.6-10,53.3-15.4c3-0.9,6-3.2,7.9-5.7c20-26.2,39.8-52.6,59.8-78.8
				c19.7-25.9,39.4-51.7,59.2-77.5c13.5-17.6,27.2-35,40.7-52.7c11-14.5,21.7-29.2,32.8-43.7c15.5-20.2,31.3-40.1,46.8-60.4
				c15.4-20.1,30.6-40.5,45.9-60.7c5-6.7,10.7-12.9,15-20c2.6-4.2,2.7-9.9,4.5-14.7c3.9-10.2,8.6-20.1,12.1-30.4
				c2.3-6.7,3.1-14,4.7-20.9c2.7-11.9,8.6-22,19-28.7c12-7.7,25.4-7.6,38.9-6.5c1.9,0.2,4.3,0,5.8-1c17.6-12,36.7-14.8,55.9-6.4
				c14.3,6.2,24.1,18.5,26,34.3c1.2,10-0.9,20.4-1.4,30.7c-0.1,1.3,0.5,2.6,0.8,3.9c0.7,1.9,1.3,3.8,2.1,5.6c10,24,7.4,45.6-15,60.5
				c-13.8,9.2-27.7,18.1-39.9,29.4c-3.4,3.1-8,4.7-11.9,7.3c-2.5,1.7-5.3,3.4-7,5.9c-41.8,59.8-83.4,119.7-125.1,179.7
				c-52.6,75.7-105.2,151.3-157.7,227.1c-1.8,2.6-3,6.3-3,9.5c-0.1,13.8,0.2,27.7,0.7,41.5c1.1,31.1,5.4,61.6,15.6,91.3
				c14.8,43.4,24.6,87.8,21.2,134.3c-1.9,26.5-7.8,51.9-17.7,76.4c-16.8,41.7-43,77.1-73,110.1c-19.7,21.6-41.4,41.6-55.8,67.7
				c-2,3.6-5.1,6.7-8.1,9.6c-11.1,11.1-26.9,11.9-36.2-3.7c-11.4-19-25.6-21.8-42.8-7.8c-11.8,9.7-22.4,21.3-32.1,33.1
				c-18.4,22.5-34.8,46.4-40.8,75.8C1276.4,1704.8,1286.8,1722,1307.3,1727.7z M1818.4,598.7c4.8-2,10.3-3.1,14.1-6.2
				c5.9-4.7,10.8-10.8,15.8-16.5c4.2-4.8,8.5-8.6,15.6-8.7c8.5-0.1,12-6,8.5-13.7c-1.8-4-4.6-7.7-7-11.5c-4-8.8-2.4-17,1.8-25.5
				c2.7-5.3,4.2-13.1-1.6-16.6c-3.6-2.2-10.3,0.1-15.4,1.1c-2,0.4-3.8,2.7-5.4,4.3c-6.5,6.6-14.1,7.9-22.9,5.8
				c-4.5-1.1-9.2-1.6-13.8-1.8c-4.8-0.3-9.4,5-7.6,9.4c3.4,8.6,0.1,15.3-4.3,22.4c-6.2,9.9-12.7,19.8-12.9,32.4
				c-0.1,4.4-1.5,9.3-4,12.9c-8.6,12.3-17.8,24.1-26.9,36.1c-32.5,42.6-65,85.1-97.5,127.6c-31,40.5-62.2,80.8-93.2,121.3
				c-28.9,37.7-57.7,75.5-86.2,113.5c-8,10.6-15.6,21-30,23.4c-3.1,0.5-6.1,1.5-9.1,2.4c-9.6,3-19.1,6.7-28.8,9
				c-20.5,4.9-40.9,10.4-61.7,13.4c-17.2,2.5-35,1.6-52.4,2.5c-17.6,0.9-35.2,1.5-52.8,3.1c-25.5,2.4-49.8,9.5-72.8,21
				c-49.4,24.6-84,64.3-110.8,111.2c-15,26.2-28,53.6-41.9,80.4c2.1,1.6,5.5,4,8.7,6.7c10,8.3,15.4,19.5,19,31.6
				c0.2,8.7,0.4,17.4,0.5,26.2c-3.7,10.8-6.1,22.2-11.2,32.3c-12.5,24.7-26.8,48.4-46.7,68.1c-10.3,10.2-20.2,20.8-31.3,30
				c-16.5,13.7-35.7,21.3-57.5,20.7c-5.6-0.7-11.2-1.4-16.8-2.1c-7.9-4.9-16.1-9.4-23.7-14.8c-5.8-4.1-10.7-9.3-16.1-13.9
				c-0.8-0.7-2.3-1.5-3.1-1.2c-3.8,1.2-7.9,2.3-11.2,4.4c-9.3,6.1-18.2,12.7-27.4,18.9c-9.9,6.7-20,13-29.9,19.8
				c-11,7.5-22.2,14.7-32.5,23c-22.7,18.3-45.4,36.6-67,56.1c-30.4,27.3-57.8,57.6-77.9,93.6c-9.4,16.8-18.1,34.4-24.3,52.5
				c-5.2,15.2-6.3,31.8-9,47.9c-2.4,14.1-2.1,28.5,1.2,42.2c4.5,19,10.3,37.9,17.2,56.2c3.2,8.5,5.5,18.4,14.3,23.9
				c1.1,3.5,1.6,7.5,3.5,10.6c16.4,26.2,35.7,50.1,57.2,72.2c33.6,34.5,71,64.5,110.3,92.1c34.3,24,69.8,45.9,108.2,62.9
				c11.2,5,22.5,9.7,34,13.8c26.4,9.5,53.5,16.8,81.6,18.7c24,1.6,47.9-0.5,71.3-7c44.6-12.4,79.8-38.8,109.4-73.3
				c35.3-41.1,59.4-88.7,79.7-138.4c5-12.2,10.4-24.4,14-37.1c11.4-39.1,22-78.4,32.7-117.8c0.4-1.5-1.5-4.5-3.1-5.5
				c-7.5-4.7-16.2-8-22.8-13.7c-26-22.5-32.9-51.3-23.6-83.6c13.9-48.3,44.1-86.1,80.1-119.7c11.5-10.8,25.3-18.2,41.3-20.4
				c10.2-1.4,20.1-1.5,29.4,4.8c5.7,3.9,12.5,6.1,18.9,8.8c0.8,0.3,2.6-0.4,3.3-1.1c11.6-13.4,22.7-27.2,34.7-40.2
				c27.7-30,54.6-60.4,73-97.5c21.6-43.5,28.7-89,20.1-136.6c-4.1-22.4-10.9-44.4-16.8-66.5c-3.4-12.7-7.7-25.3-11.6-37.9
				c-0.9-7.7-1.7-15.4-2.6-23.1c-1-8.8-2.1-17.6-3.2-26.4c-0.2-6.6-0.6-13.3-0.6-19.9c-0.1-15-0.4-30,0.3-44.9
				c0.2-5.3,1.9-11.3,4.8-15.6c21.3-31.4,43.1-62.3,64.6-93.5c5.4-7.8,10.3-15.8,15.4-23.8c2-2.5,4.1-5,6-7.6
				c10.5-14.9,20.9-29.9,31.3-44.8c21.1-30.3,42.4-60.5,63.4-90.8c21.5-31,42.7-62.2,64.2-93.2c16-23.1,32.2-46,48.5-68.8
				C1810.5,604.9,1814.8,602,1818.4,598.7z"/>
			<path class="st4" d="M1307.3,1727.7c-20.5-5.7-30.9-22.9-26.7-43.4c6-29.4,22.4-53.2,40.8-75.8c9.7-11.9,20.3-23.4,32.1-33.1
				c17.1-14,31.4-11.2,42.8,7.8c9.3,15.6,25,14.8,36.2,3.7c3-3,6.1-6,8.1-9.6c14.4-26.1,36.1-46,55.8-67.7c30-33,56.2-68.4,73-110.1
				c9.9-24.5,15.7-49.9,17.7-76.4c3.4-46.6-6.4-90.9-21.2-134.3c-10.2-29.8-14.5-60.2-15.6-91.3c-0.5-13.8-0.8-27.7-0.7-41.5
				c0-3.2,1.2-6.8,3-9.5c52.5-75.8,105.1-151.4,157.7-227.1c41.7-59.9,83.3-119.8,125.1-179.7c1.7-2.4,4.5-4.2,7-5.9
				c3.9-2.6,8.6-4.2,11.9-7.3c12.3-11.3,26.1-20.2,39.9-29.4c22.4-14.9,25-36.5,15-60.5c-0.8-1.8-1.4-3.8-2.1-5.6
				c15.7-6,32.5,17,28.6,33.9c-1.1,4.8-3.7,9.4-4.2,14.2c-0.4,3.6,0.6,8,2.5,11c8,12.6,9.4,26.3,1.7,35.7
				c-5.8,7.1-12.4,12.9-22.6,14.5c-4.3,0.6-7.3,7.4-11.5,10.6c-8.2,6.4-17.1,11.9-25.3,18.3c-4.7,3.7-9.3,7.9-12.8,12.7
				c-10.4,14.5-20.3,29.3-30.3,44.1c-12.6,18.5-25.1,37.2-37.8,55.6c-7.2,10.4-14.9,20.3-22.1,30.7c-12.8,18.4-25.3,37.2-38.2,55.6
				c-8.6,12.3-18.1,24-26.6,36.4c-11.3,16.5-21.9,33.4-33.2,50c-10.4,15.2-21.4,30-31.9,45.2c-9,13-17.5,26.5-26.6,39.5
				c-10.2,14.6-20.4,29.2-31.2,43.4c-7.2,9.5-10.6,19.3-9.6,31.5c2.5,30.3,2,61.1,6.6,91c3.8,24.8,13.2,48.7,19.9,73.1
				c14.6,53.2,17.1,106.3-2.6,159c-12.6,33.5-31.2,63.4-54.5,90.4c-20.4,23.6-41.4,46.6-61.6,70.3c-5.7,6.7-9.7,14.9-14.7,22.2
				c-1.9,2.7-4.5,4.9-6.3,6.9c-6.4-6.7-11.6-13.4-18.1-18.7c-14.6-11.8-31.2-11.9-47.5-2.8c-22,12.4-37.3,31.5-52,51
				c-15.3,20.4-28.8,41.9-35.7,66.9C1309.2,1724.7,1308.1,1726.2,1307.3,1727.7z"/>
			<path class="st4" d="M843.3,2144.3c10.3,4.2,20.6,8.5,31,12.6c32.3,12.8,65.5,22.2,100.3,25.7c85.5,8.8,156-21.1,213.6-83.3
				c35.1-37.8,61.6-81.3,81.4-128.9c12-29,24.5-58,34.5-87.7c9.6-28.8,16.4-58.5,24.4-87.8c0.3-1,0.7-2,1.1-3
				c11.3,3.5,22.6,6.9,33.9,10.6c0.8,0.3,1.5,2.6,1.2,3.7c-14.1,50.6-23.8,102.5-43.3,151.6c-9.5,23.9-19.5,47.7-30.2,71.1
				c-7.7,16.8-16.3,33.3-25.6,49.3c-6.2,10.7-14.3,20.4-21.5,30.5c-19.7,27.5-43.1,51.3-71.5,69.7c-23.7,15.3-49.1,27.5-77,33.1
				c-27.9,5.6-55.9,6-84.2,1.5c-56.8-9.1-108.6-30.9-157.7-59.7C849.7,2151,846.7,2147.3,843.3,2144.3z"/>
			<path class="st4" d="M1043.5,1315.9c-0.2-8.7-0.4-17.4-0.5-26.2c3.1-3.5,7.1-6.6,9.3-10.6c10.3-19.5,19.4-39.6,30.1-58.8
				c20-35.9,44.1-68.7,75.9-95.2c36.6-30.6,78.6-49.2,125.9-54.2c28.3-3,56.9-2.8,85.3-4.1c7.9-0.4,16.1,0.2,23.7-1.7
				c33.2-8.3,66.1-17.4,99.1-26.4c2.5-0.7,4.9-2.7,6.5-4.8c17.3-22.3,34.5-44.8,51.6-67.2c10.4-13.7,20.6-27.6,31.3-41.1
				c3.5-4.4,8.4-7.8,12.6-11.6c-5.1,7.9-10,16-15.4,23.8c-21.5,31.2-43.4,62.2-64.6,93.5c-2.9,4.3-4.6,10.3-4.8,15.6
				c-0.7,15-0.4,30-0.3,44.9c0,6.6,0.4,13.3,0.6,19.9c-10.8-3.4-21.5-7.2-32.4-9.8c-4.3-1-11.3-0.8-13.7,1.8
				c-16.2,18.1-31.6,36.9-47.1,55.6c-28.5,34.2-56.9,68.5-85.5,102.8c-22.1,26.6-44.4,53-66.5,79.7c-1,1.2-0.8,5,0.3,6
				c4.5,3.9,9.4,7.3,14.3,10.8c22.2,15.4,44.4,30.7,66.5,46.2c3.4,2.4,5,1.3,7-1.7c17.1-25.6,34.4-51.1,51.4-76.8
				c34.1-51.4,68.1-102.8,102.3-154.1c2.6-3.9,6.1-7.3,9.1-10.9c3.9,12.6,8.1,25.1,11.6,37.9c6,22.1,12.8,44,16.8,66.5
				c8.6,47.5,1.5,93.1-20.1,136.6c-18.4,37.1-45.3,67.5-73,97.5c-12,13-23.1,26.9-34.7,40.2c-0.7,0.8-2.5,1.5-3.3,1.1
				c-6.4-2.7-13.2-5-18.9-8.8c-9.3-6.3-19.2-6.2-29.4-4.8c-16,2.2-29.7,9.7-41.3,20.4c-36,33.6-66.2,71.4-80.1,119.7
				c-9.3,32.3-2.4,61.1,23.6,83.6c6.6,5.7,15.3,8.9,22.8,13.7c1.6,1,3.5,4,3.1,5.5c-10.7,39.3-21.4,78.6-32.7,117.8
				c-3.7,12.7-9,24.9-14,37.1c-20.4,49.7-44.4,97.4-79.7,138.4c-29.7,34.5-64.9,60.9-109.4,73.3c-23.4,6.5-47.3,8.7-71.3,7
				c-28.1-1.9-55.2-9.2-81.6-18.7c-11.5-4.1-22.8-8.9-34-13.8c-38.3-17-73.9-38.8-108.2-62.9c-39.4-27.6-76.7-57.6-110.3-92.1
				c-21.6-22.1-40.9-46-57.2-72.2c-1.9-3.1-2.4-7-3.5-10.6c-0.9-3.7-2.1-7.3-2.6-11c-1.4-11.2-3.1-22.4-3.7-33.6
				c-2.4-43.5,8.8-83.9,28.9-122.1c23.8-45.3,57-83,94.6-117.3c38.9-35.5,81.1-66.6,125.7-94.6c15.7-9.8,31.1-20.1,46.6-30.2
				c5.6,0.7,11.2,1.4,16.8,2.1c1.6,2.5,3,5,4.8,7.4c15.9,22,40.2,29.3,65.7,20.1c3.9-1.4,8-2.2,12-3.2
				c-10.9,9.5-21.5,19.3-32.9,28.3c-14.1,11.2-28.7,21.8-43.5,32.1c-3.7,2.6-8.5,3.8-12.3-1.6c-1.5-2.2-4.6-3.6-7.3-4.5
				c-15.8-5.1-30.7,3.7-34.3,20.2c-3,13.5,4.1,27.4,16.1,31.6c19.2,6.6,37.5,1.8,53.4-8.2c18.1-11.4,34.8-25.3,50.9-39.5
				c28.9-25.5,56.9-52.1,85.5-78.1c1-0.9,3.7-0.5,5.2,0.1c4.3,1.9,8.2,5.4,12.7,6.3c11.9,2.4,18.8-9.2,21.2-19.4
				c2.1-8.6-3.2-19.4-12.5-21.9c-7.2-1.9-15.4-2.6-22.8-1.6c-14.9,2.1-25.8,12.4-37.4,20.8c0.4-1.6,0.3-3.5,1.1-4.8
				c4.2-6.1,8.9-11.8,12.9-18.1c9.6-15.1,20.4-29.7,27.7-45.9c5-11.1,7.3-24.6,6.8-36.8C1069.1,1334,1058.9,1322.3,1043.5,1315.9z
				 M977.1,1827.4c9.8-12.3,10.6-19.2,2.2-28c-26.7-27.8-57.5-50-92.1-66.9c-2.8-1.4-6.2-2.3-9.4-2.2c-5.3,0-9.6,2.2-12.3,7.4
				c-5.6,10.8-12,21.1-17.3,32c-3,6-4.8,12.6-6.7,19.1c-5.1,17.6-12.1,35.1-14.3,53.1c-1.8,14.6-5.4,28-11.5,40.9
				c-16.5,35-38.5,66.6-60.9,97.9c-6.2,8.6-5.3,17,2.3,22.9c7.5,5.8,15.3,4.6,21.8-3.3c15.3-18.9,30-38.2,45.8-56.6
				c15.6-18.1,32.4-35.1,53.3-47.3c3.1-1.8,6.9-2.4,10.4-3.5c0.1,4,1.3,8.3,0.2,11.9c-3.4,11.6-8,22.8-11.3,34.4
				c-2.5,9.1,9.6,6.8,11.5,13c0.2,0.5,3.4,0.9,4.2,0.2c13.4-11.8,28.9-19.5,45.2-26.6c30.3-13.3,53.4-36.7,76.6-59.6
				c0.8-0.8,0.9-3.7,0.1-4.4c-6.3-6.4-12.7-12.8-19.4-18.9C989.5,1837.6,983.2,1832.6,977.1,1827.4z M1190.2,1566.9
				c-7.1,15.8-14.2,32.2-21.8,48.4c-12.5,26.8-25.6,53.3-38,80.2c-8.4,18.3-15.7,37.1-13.7,58.1c1.1,12.1,3,23.8,10.2,34
				c6.1,8.7,15,11.4,24.7,9.7c9.6-1.6,18.6-6.4,22.7-15.3c6.1-13.2-0.6-27.1-13.9-33.4c-1.6-0.8-3.5-4.3-3-5.9
				c5.5-18.2,10.6-36.6,17.4-54.3c11.6-30,24.4-59.5,36.7-89.2c5.8-14,11.6-28.1,11-43.6c-0.6-14.8-9-31.4-28-30
				c-13,1-23.8,17.4-17.3,28.4C1180,1559,1185.4,1562.3,1190.2,1566.9z"/>
			<path class="st4" d="M1818.4,598.7c2.4-5.3,4.9-10.5,7.1-15.9c0.9-2.1,1.8-4.7,1.3-6.8c-2.4-11.5,6-29.5,17.1-32.7
				c6.7-2,14.3-0.8,21.5-1.1c2.4,3.8,5.1,7.4,7,11.5c3.5,7.7,0,13.6-8.5,13.7c-7.1,0.1-11.4,3.9-15.6,8.7c-5,5.7-9.9,11.7-15.8,16.5
				C1828.7,595.6,1823.2,596.7,1818.4,598.7z"/>
			<path class="st3" d="M888.3,1892.9c-3.5,1.1-7.3,1.7-10.4,3.5c-20.9,12.2-37.7,29.2-53.3,47.3c-15.8,18.4-30.5,37.7-45.8,56.6
				c-6.4,7.9-14.3,9.1-21.8,3.3c-7.7-5.9-8.5-14.3-2.3-22.9c22.5-31.3,44.4-63,60.9-97.9c6.1-12.9,9.7-26.3,11.5-40.9
				c2.3-18,9.2-35.5,14.3-53.1c1.9-6.5,3.7-13.1,6.7-19.1c5.4-10.9,11.7-21.3,17.3-32c2.7-5.2,7-7.4,12.3-7.4c3.1,0,6.5,0.9,9.4,2.2
				c34.6,16.9,65.4,39.1,92.1,66.9c8.4,8.7,7.6,15.7-2.2,28c-11.4,10.4-22.4,21.2-34.3,31C926.2,1872.2,909,1885.5,888.3,1892.9z
				 M927,1795.6c-0.1-0.5,0-1.2-0.2-1.3c-13-8.8-26-17.7-39.1-26.3c-0.6-0.4-3,0.7-3.3,1.5c-7.2,18-15.3,35.8-21.1,54.2
				c-4.2,13.4-5.2,27.7-7.7,41.6c-0.5,2.9-1.6,5.8-2.4,8.8c7.8-3.8,15-7.3,22.2-10.8c8.7-4.3,17.4-8.6,26.1-12.9
				c15.7-12.4,31.3-24.7,48.2-38C941.1,1806,934,1800.8,927,1795.6z"/>
			<path class="st3" d="M979.3,1491.3c14-11.8,28.1-23.7,42.1-35.5c11.7-8.4,22.6-18.7,37.4-20.8c7.4-1,15.5-0.3,22.8,1.6
				c9.2,2.5,14.6,13.2,12.5,21.9c-2.5,10.1-9.3,21.8-21.2,19.4c-4.5-0.9-8.4-4.4-12.7-6.3c-1.5-0.7-4.3-1-5.2-0.1
				c-28.5,26-56.5,52.5-85.5,78.1c-16.1,14.2-32.8,28.1-50.9,39.5c-15.8,10-34.2,14.8-53.4,8.2c-12-4.1-19-18-16.1-31.6
				c3.6-16.4,18.5-25.3,34.3-20.2c2.7,0.9,5.8,2.3,7.3,4.5c3.8,5.4,8.6,4.2,12.3,1.6c14.8-10.3,29.3-21,43.5-32.1
				C957.8,1510.6,968.4,1500.7,979.3,1491.3z"/>
			<path class="st3" d="M1190.2,1566.9c-4.8-4.6-10.2-8-13.1-12.8c-6.5-11.1,4.3-27.4,17.3-28.4c19-1.5,27.4,15.2,28,30
				c0.6,15.5-5.2,29.6-11,43.6c-12.3,29.7-25.1,59.3-36.7,89.2c-6.8,17.7-11.9,36.1-17.4,54.3c-0.5,1.6,1.4,5.1,3,5.9
				c13.3,6.3,19.9,20.2,13.9,33.4c-4.1,8.9-13.1,13.7-22.7,15.3c-9.7,1.6-18.6-1.1-24.7-9.7c-7.2-10.2-9.1-21.9-10.2-34
				c-1.9-20.9,5.3-39.7,13.7-58.1c12.3-26.9,25.4-53.4,38-80.2C1176,1599.1,1183.1,1582.8,1190.2,1566.9z"/>
			<path class="st4" d="M901.5,1850.5c-8.7,4.3-17.4,8.6-26.1,12.9c-7.2,3.5-14.4,7-22.2,10.8c0.8-3,1.9-5.9,2.4-8.8
				c2.5-13.9,3.5-28.3,7.7-41.6c5.8-18.5,13.8-36.2,21.1-54.2c0.3-0.9,2.8-1.9,3.3-1.5c13.1,8.7,26.1,17.5,39.1,26.3
				c0.3,0.2,0.2,0.9,0.2,1.3c-6.1,12.1-12.4,24.2-18.2,36.5C905.9,1838,903.9,1844.3,901.5,1850.5z"/>
		</g>
	</g>
</g>
</svg>
